<svg height="512pt" viewBox="0 -2 512.00066 512" width="512pt" xmlns="http://www.w3.org/2000/svg"><path d="m452.757812 398.679688 30.804688-13.410157-54.253906-124.660156-30.808594 13.410156-9.714844-22.324219 42.667969-18.570312c5.777344-2.515625 12.503906.132812 15.015625 5.910156l64.582031 148.378906c2.515625 5.777344-.132812 12.503907-5.910156 15.019532l-42.667969 18.570312zm0 0" fill="#e1d3ce"/><path d="m337.953125 507.785156 127.503906-55.496094c7.882813-3.429687 11.496094-12.605468 8.0625-20.488281l-91.324219-209.828125-156.054687 67.921875 91.320313 209.824219c3.433593 7.886719 12.605468 11.496094 20.492187 8.066406zm0 0" fill="#fee97d"/><path d="m473.519531 431.800781-91.324219-209.828125-26.179687 11.398438 86.363281 198.429687c3.429688 7.882813-.179687 17.058594-8.066406 20.488281l-115.304688 50.1875c4.164063 5.921876 12.046876 8.308594 18.945313 5.308594l127.503906-55.492187c7.882813-3.433594 11.492188-12.609375 8.0625-20.492188zm0 0" fill="#fedf30"/><path d="m225.53125 230.25c7.535156-3.28125 15.558594-3.867188 23.007812-2.195312 2.65625-2.941407 5.957032-5.382813 9.828126-7.066407 8.042968-3.503906 16.816406-3.015625 24.117187.582031 2.847656-9.507812 9.699219-17.75 19.515625-22.023437 5.695312-2.476563 11.6875-3.308594 17.453125-2.722656 3.507813-8.839844 10.371094-16.351563 19.78125-20.445313 18.882813-8.21875 40.851563.425782 49.070313 19.308594s-.425782 40.851562-19.308594 49.070312c-7.140625 3.109376-14.722656 3.800782-21.835938 2.445313-3.53125 7.066406-9.46875 12.984375-17.285156 16.386719-11.710938 5.097656-24.6875 3.261718-34.355469-3.691406-2.890625 5.886718-7.796875 10.820312-14.28125 13.640624-1.6875.734376-3.410156 1.289063-5.140625 1.679688-3.058594 10.109375-10.363281 18.863281-20.804687 23.410156-18.882813 8.21875-40.851563-.425781-49.070313-19.308594-8.21875-18.882812.425782-40.851562 19.308594-49.070312zm0 0" fill="#f8eedb"/><path d="m388.308594 195.6875c-8.21875-18.882812-30.191406-27.527344-49.074219-19.308594-.230469.101563-.453125.214844-.683594.320313 8.039063 3.691406 14.804688 10.238281 18.613281 18.988281 8.21875 18.882812-.425781 40.855469-19.308593 49.070312-7.140625 3.109376-14.722657 3.800782-21.835938 2.445313-3.277343 6.5625-8.632812 12.125-15.628906 15.609375 8.914063 4.433594 19.640625 5.0625 29.484375.777344 7.816406-3.398438 13.753906-9.316406 17.289062-16.386719 7.113282 1.355469 14.691407.664063 21.832032-2.445313 18.882812-8.21875 27.527344-30.1875 19.3125-49.070312zm0 0" fill="#f8e0b3"/><path d="m412.925781 426.859375c8.234375-3.585937 12.003907-13.164063 8.417969-21.398437l-43.082031-98.992188c-3.582031-8.230469-13.164063-12.003906-21.398438-8.417969-8.234375 3.582031-12.003906 13.164063-8.421875 21.398438l43.085938 98.988281c3.582031 8.234375 13.160156 12.003906 21.398437 8.421875zm0 0" fill="#fed402"/><path d="m353.285156 452.816406c8.230469-3.582031 12.003906-13.164062 8.417969-21.398437l-43.082031-98.988281c-3.582032-8.234376-13.164063-12.003907-21.398438-8.421876-8.234375 3.582032-12.003906 13.164063-8.421875 21.398438l43.082031 98.988281c3.585938 8.234375 13.167969 12.003907 21.402344 8.421875zm0 0" fill="#fed402"/><path d="m59.667969 388.816406-32.722657-7.617187 30.820313-132.414063 32.722656 7.617188 5.519531-23.710938-45.320312-10.550781c-6.136719-1.429687-12.273438 2.386719-13.703125 8.527344l-36.683594 157.609375c-1.429687 6.140625 2.386719 12.273437 8.527344 13.703125l45.320313 10.550781zm0 0" fill="#e1d3ce"/><path d="m192.304688 475.367188-135.433594-31.523438c-8.375-1.953125-13.585938-10.320312-11.636719-18.695312l51.878906-222.878907 165.769531 38.585938-51.882812 222.878906c-1.949219 8.375-10.316406 13.582031-18.695312 11.632813zm0 0" fill="#fee97d"/><path d="m231.617188 241.378906-51.757813 222.355469c-.710937 3.058594-2.289063 5.691406-4.402344 7.710937l16.847657 3.921876c8.378906 1.949218 16.746093-3.257813 18.695312-11.636719l51.757812-222.351563zm0 0" fill="#fedf30"/><path d="m252.695312 182.082031c-8.003906-1.863281-16.003906-.988281-23.027343 2-3.140625-2.414062-6.832031-4.21875-10.941407-5.171875-8.546874-1.988281-17.085937.074219-23.617187 4.933594-4.519531-8.839844-12.75-15.707031-23.175781-18.132812-6.050782-1.40625-12.09375-1.144532-17.660156.480468-5.046876-8.0625-13.15625-14.207031-23.152344-16.535156-20.054688-4.667969-40.101563 7.808594-44.769532 27.863281-4.667968 20.058594 7.808594 40.101563 27.863282 44.773438 7.585937 1.765625 15.167968 1.074219 21.917968-1.546875 4.753907 6.316406 11.664063 11.0625 19.964844 12.992187 12.441406 2.898438 24.871094-1.253906 33.121094-9.839843 3.90625 5.265624 9.625 9.230468 16.511719 10.835937 1.792969.417969 3.585937.648437 5.359375.722656 4.835937 9.390625 13.601562 16.679688 24.695312 19.261719 20.058594 4.667969 40.101563-7.808594 44.769532-27.863281 4.671874-20.0625-7.804688-40.105469-27.859376-44.773438zm0 0" fill="#f8eedb"/><path d="m252.695312 182.082031c-8.003906-1.863281-16.003906-.988281-23.027343 2-.039063-.03125-.078125-.058593-.117188-.085937v.945312c15.230469 7.472656 23.875 24.683594 19.867188 41.910156-2.71875 11.671876-10.644531 20.769532-20.75 25.421876 2.246093 1.027343 4.621093 1.859374 7.121093 2.445312 20.058594 4.667969 40.101563-7.808594 44.769532-27.867188 4.667968-20.058593-7.808594-40.101562-27.863282-44.769531zm0 0" fill="#f8e0b3"/><path d="m103.9375 409.332031c-8.746094-2.035156-14.1875-10.777343-12.148438-19.523437l24.472657-105.148438c2.035156-8.746094 10.777343-14.1875 19.523437-12.152344 8.75 2.039063 14.1875 10.777344 12.152344 19.527344l-24.476562 105.144532c-2.035157 8.746093-10.777344 14.1875-19.523438 12.152343zm0 0" fill="#fed402"/><path d="m167.289062 424.078125c-8.746093-2.035156-14.1875-10.777344-12.152343-19.523437l24.476562-105.148438c2.035157-8.746094 10.777344-14.1875 19.523438-12.152344 8.746093 2.035156 14.1875 10.777344 12.152343 19.523438l-24.476562 105.148437c-2.035156 8.746094-10.777344 14.1875-19.523438 12.152344zm0 0" fill="#fed402"/><g fill="#ecedef"><path d="m259.417969 142.726562c-4.046875 0-7.464844-3.125-7.757813-7.222656-.996094-13.78125 3.4375-27.128906 12.480469-37.578125 9.042969-10.445312 21.613281-16.75 35.394531-17.742187 4.28125-.316406 8.015625 2.914062 8.324219 7.203125.3125 4.289062-2.914063 8.015625-7.203125 8.328125-9.632812.691406-18.421875 5.097656-24.742188 12.402344-6.320312 7.304687-9.417968 16.632812-8.722656 26.265624.308594 4.289063-2.917968 8.015626-7.207031 8.324219-.191406.015625-.378906.019531-.566406.019531zm0 0"/><path d="m194.699219 147.394531c-4.042969 0-7.460938-3.125-7.757813-7.222656-1.433594-19.890625-18.785156-34.898437-38.667968-33.46875-4.292969.308594-8.019532-2.917969-8.324219-7.207031-.3125-4.285156 2.914062-8.015625 7.203125-8.324219 28.464844-2.054687 53.269531 19.425781 55.320312 47.878906.308594 4.285157-2.917968 8.015625-7.203125 8.324219-.191406.015625-.382812.019531-.570312.019531zm0 0"/><path d="m227.511719 145.03125c-4.046875 0-7.464844-3.128906-7.757813-7.226562l-3.730468-51.707032c-.308594-4.289062 2.917968-8.015625 7.203124-8.324218 4.292969-.3125 8.019532 2.914062 8.328126 7.203124l3.730468 51.707032c.308594 4.289062-2.917968 8.015625-7.207031 8.324218-.191406.015626-.378906.023438-.566406.023438zm0 0"/></g><path d="m108.535156 59.042969-2.519531-14.214844c-.4375-2.476563-2.042969-4.585937-4.3125-5.667969-2.265625-1.082031-4.917969-1.003906-7.117187.210938l-12.636719 6.980468-14.300781-1.996093c-2.488282-.347657-4.992188.527343-6.722657 2.351562-1.730469 1.820313-2.472656 4.367188-1.996093 6.835938l2.734374 14.175781-6.316406 12.980469c-1.101562 2.261719-1.042968 4.910156.15625 7.121093 1.199219 2.207032 3.390625 3.703126 5.882813 4.011719l14.328125 1.777344 10.394531 10.023437c1.464844 1.410157 3.40625 2.179688 5.402344 2.179688.472656 0 .949219-.042969 1.417969-.128906 2.472656-.457032 4.570312-2.078125 5.636718-4.355469l6.117188-13.078125 12.742187-6.789062c2.21875-1.179688 3.730469-3.359376 4.058594-5.851563s-.566406-4.988281-2.402344-6.707031zm0 0" fill="#fee97d"/><path d="m119.082031 68.902344-10.546875-9.859375-2.519531-14.214844c-.4375-2.476563-2.042969-4.585937-4.3125-5.667969-2.265625-1.082031-4.917969-1.003906-7.117187.210938l-12.636719 6.980468-1.390625-.191406.257812 1.46875 12.3125 11.507813c2.140625 2.003906 3.1875 4.917969 2.800782 7.828125-.382813 2.90625-2.144532 5.453125-4.734376 6.832031l-14.875 7.921875-5.292968 11.3125 4.6875.578125 10.394531 10.023437c1.464844 1.410157 3.40625 2.179688 5.402344 2.179688.472656 0 .949219-.042969 1.417969-.128906 2.472656-.457032 4.570312-2.078125 5.636718-4.355469l6.117188-13.078125 12.742187-6.789062c2.21875-1.179688 3.730469-3.359376 4.058594-5.851563s-.566406-4.988281-2.402344-6.707031zm0 0" fill="#fedf30"/><path d="m219.503906 11.128906-11.042968-9.300781c-1.921876-1.617187-4.507813-2.207031-6.945313-1.585937-2.433594.625-4.417969 2.382812-5.328125 4.726562l-5.222656 13.460938-12.257813 7.628906c-2.132812 1.332031-3.492187 3.605468-3.652343 6.113281-.160157 2.507813.898437 4.941406 2.847656 6.53125l11.1875 9.125 3.46875 14.015625c.605468 2.4375 2.347656 4.4375 4.683594 5.363281 2.335937.929688 4.976562.671875 7.089843-.691406l12.136719-7.816406 14.402344 1.027343c2.027344.144532 4.011718-.507812 5.542968-1.789062.363282-.300781.699219-.636719 1.003907-1.007812 1.605469-1.933594 2.175781-4.527344 1.535156-6.953126l-3.683594-13.960937 5.429688-13.378906c.941406-2.328125.707031-4.96875-.640625-7.09375-1.34375-2.125-3.628906-3.464844-6.140625-3.609375zm0 0" fill="#fee97d"/><path d="m233.921875 11.9375-14.417969-.808594-11.042968-9.300781c-1.921876-1.617187-4.507813-2.207031-6.945313-1.585937-2.433594.625-4.417969 2.382812-5.328125 4.726562l-5.222656 13.460938-1.191406.742187 1.140624.960937 16.828126.941407c2.925781.164062 5.597656 1.734375 7.164062 4.210937 1.570312 2.476563 1.847656 5.5625.746094 8.28125l-6.339844 15.613282 3.1875 12.074218 3.96875-2.558594 14.402344 1.03125c2.027344.144532 4.011718-.507812 5.546875-1.789062.359375-.300781.699219-.640625 1.003906-1.007812 1.601563-1.9375 2.171875-4.527344 1.53125-6.957032l-3.683594-13.957031 5.429688-13.378906c.945312-2.328125.707031-4.972657-.636719-7.09375-1.347656-2.121094-3.632812-3.464844-6.140625-3.605469zm0 0" fill="#fedf30"/><path d="m352.359375 35.015625-1.273437-14.378906c-.222657-2.503907-1.636719-4.746094-3.804688-6.023438-2.164062-1.273437-4.8125-1.425781-7.109375-.40625l-13.195313 5.859375-14.070312-3.234375c-2.453125-.5625-5.023438.09375-6.902344 1.757813-1.882812 1.664062-2.847656 4.136718-2.585937 6.636718l1.492187 14.359376-7.421875 12.382812c-1.292969 2.15625-1.464843 4.800781-.460937 7.109375 1 2.304687 3.054687 3.984375 5.511718 4.507813l14.121094 3.015624 9.484375 10.886719c1.335938 1.535157 3.203125 2.46875 5.191407 2.640625.46875.042969.945312.042969 1.421874-.003906 2.503907-.242188 4.734376-1.675781 5.992188-3.851562l7.234375-12.496094 13.28125-5.65625c2.3125-.980469 4.007813-3.023438 4.550781-5.476563.546875-2.453125-.128906-5.019531-1.808594-6.890625zm0 0" fill="#fee97d"/><path d="m362.007812 45.757812-9.648437-10.742187-1.273437-14.378906c-.222657-2.503907-1.640626-4.746094-3.804688-6.023438-2.164062-1.273437-4.8125-1.425781-7.109375-.40625l-13.195313 5.859375-1.371093-.316406.132812 1.488281 11.261719 12.535157c1.960938 2.179687 2.75 5.175781 2.113281 8.039062-.632812 2.863281-2.613281 5.246094-5.3125 6.394531l-15.503906 6.601563-6.257813 10.808594 4.617188.984374 9.484375 10.886719c1.335937 1.535157 3.203125 2.46875 5.195313 2.640625.46875.042969.945312.042969 1.421874-.003906 2.5-.242188 4.734376-1.675781 5.992188-3.851562l7.230469-12.496094 13.285156-5.65625c2.3125-.980469 4.007813-3.023438 4.550781-5.476563.546875-2.453125-.128906-5.019531-1.808594-6.886719zm0 0" fill="#fedf30"/></svg>