<?xml version="1.0" encoding="utf-8"?>
<!-- Generator: Adobe Illustrator 24.0.0, SVG Export Plug-In . SVG Version: 6.00 Build 0)  -->
<svg version="1.1" id="Ebene_1" xmlns="http://www.w3.org/2000/svg" xmlns:xlink="http://www.w3.org/1999/xlink" x="0px" y="0px"
	 viewBox="0 0 512 512" style="enable-background:new 0 0 512 512;" xml:space="preserve">
<style type="text/css">
	.st0{fill:#1D1D1B;}
	.st1{fill:#FFD100;}
	.st2{fill:#F6BB92;}
	.st3{fill:#EEB58E;}
	.st4{fill:#EAEAE8;}
	.st5{fill:#744630;}
</style>
<path class="st0" d="M61.8,170.7L0,179.5l8.8-36.1L0,108.9l61.8-8.8l9.9-1.4l4.1,43.6l-14.1,1.9V170.7z"/>
<path class="st1" d="M317.8,232.4c-1.7,0-3.4-0.5-4.9-1.5l-26.5-17.7c-4.1-2.7-5.2-8.2-2.4-12.2c0.6-1,1.5-1.8,2.4-2.4l26.5-17.7
	c4.1-2.7,9.5-1.6,12.2,2.4c2.7,4.1,1.6,9.5-2.4,12.2L307.2,206l15.5,10.3c4.1,2.7,5.1,8.2,2.4,12.2
	C323.5,231,320.7,232.4,317.8,232.4z"/>
<path class="st2" d="M256,338.4c-9.8,0-17.7-7.9-17.7-17.7v-53h35.3v53C273.7,330.5,265.8,338.4,256,338.4z"/>
<path class="st3" d="M238.3,289.3c10.9,6.5,24.4,6.5,35.3,0v-12.8h-35.3V289.3z"/>
<path class="st1" d="M317.8,470.8H194.2V347.2l17.7-44.1H309l8.8,44.1V470.8z"/>
<path class="st0" d="M282.5,400.2c0,14.6-11.9,26.5-26.5,26.5s-26.5-11.9-26.5-26.5c0-14.6,11.9-26.5,26.5-26.5
	S282.5,385.5,282.5,400.2z"/>
<path class="st0" d="M450.2,144.2l-139.3-19c-36.4-5-73.3-5-109.7,0l-139.3,19V95.6c0-17.7,13-32.6,30.5-35l108.8-14.8
	c36.4-5,73.3-5,109.7,0l108.8,14.8c17.5,2.4,30.5,17.3,30.5,35V144.2z"/>
<path class="st0" d="M450.2,170.7l61.8,8.8l-8.8-36.1l8.8-34.5l-61.8-8.8l-2.1-0.4l-1.3,44l3.5,0.4V170.7z"/>
<g>
	<path class="st4" d="M158.1,82.4l13.2-1.2l1.6,17.6l-13.2,1.2L158.1,82.4z"/>
	<path class="st4" d="M192.6,97L191,79.4l29.7-2.7l1.6,17.6L192.6,97z M319.4,97l-29.6-2.6l1.6-17.6l29.6,2.7L319.4,97z M270,92.5
		l-14-1.3l-14,1.3l-1.6-17.6l14.8-1.3c0.5-0.1,1.1-0.1,1.6,0l14.8,1.3L270,92.5z"/>
	<path class="st4" d="M339.1,98.8l1.6-17.6l13.2,1.2l-1.6,17.6L339.1,98.8z"/>
</g>
<path class="st2" d="M402.4,113.4c-12.2-2.4-24,5.5-26.5,17.7c0,0.2-0.1,0.5-0.1,0.7l-5,30.1l-17.7,88.3l-53,53l17.7,44.1l70.6-70.6
	l26.5-105.9l5.2-31.5C422.1,127.2,414.3,115.8,402.4,113.4z"/>
<path class="st0" d="M300.1,303.1l17.7,44.1l39.4-39.4l-28.8-33L300.1,303.1z"/>
<path class="st2" d="M256,285.4c-19.5,0-35.3-15.8-35.3-35.3V206h61.8l8.8,8.8v35.3C291.3,269.6,275.5,285.4,256,285.4z"/>
<path class="st5" d="M291.3,206h-70.6v-17.7c0-19.5,15.8-35.3,35.3-35.3s35.3,15.8,35.3,35.3V206z"/>
<path class="st1" d="M220.7,197.1h70.6v17.7h-70.6V197.1z"/>
<path class="st2" d="M158.9,250.1l-17.7-88.3l-5-30c-2-12.3-13.6-20.5-25.9-18.5S89.8,127,91.9,139.2l5.2,31.4l26.5,105.9l70.6,70.6
	l17.7-44.1L158.9,250.1z"/>
<path class="st0" d="M211.9,303.1l-30-30L153,306l41.2,41.2L211.9,303.1z"/>
</svg>
