<?xml version="1.0" encoding="iso-8859-1"?>
<!-- Generator: Adobe Illustrator 19.0.0, SVG Export Plug-In . SVG Version: 6.00 Build 0)  -->
<svg version="1.1" id="Capa_1" xmlns="http://www.w3.org/2000/svg" xmlns:xlink="http://www.w3.org/1999/xlink" x="0px" y="0px"
	 viewBox="0 0 512 512" style="enable-background:new 0 0 512 512;" xml:space="preserve">
<g>
	<path style="fill:#D8D8DA;" d="M504.034,249.123l0.009,0.005c-0.007-0.242-0.02-0.483-0.027-0.725
		c-0.02-0.62-0.046-1.238-0.07-1.856c-0.032-0.82-0.062-1.642-0.102-2.459c-0.066-1.354-0.142-2.705-0.227-4.054
		c-0.05-0.783-0.092-1.568-0.149-2.348c-0.083-1.133-0.183-2.262-0.282-3.391c-0.072-0.834-0.142-1.667-0.222-2.498
		c-0.107-1.115-0.229-2.227-0.351-3.338c-0.092-0.834-0.185-1.667-0.286-2.499c-0.134-1.108-0.275-2.213-0.423-3.316
		c-0.11-0.823-0.227-1.646-0.345-2.467c-0.16-1.108-0.324-2.216-0.499-3.319c-0.127-0.795-0.261-1.588-0.395-2.381
		c-0.189-1.124-0.379-2.248-0.583-3.369c-0.133-0.724-0.276-1.444-0.415-2.166c-0.227-1.181-0.45-2.363-0.694-3.539
		c-0.063-0.303-0.134-0.603-0.198-0.905c-0.601-2.845-1.252-5.67-1.95-8.477c-0.11-0.444-0.213-0.889-0.325-1.331
		c-0.304-1.194-0.626-2.38-0.946-3.566c-0.177-0.656-0.35-1.315-0.533-1.969c-0.318-1.141-0.651-2.278-0.987-3.413
		c-0.202-0.685-0.402-1.368-0.61-2.05c-0.343-1.127-0.696-2.25-1.054-3.372c-0.215-0.67-0.432-1.34-0.652-2.008
		c-0.373-1.131-0.751-2.261-1.139-3.385c-0.218-0.629-0.441-1.256-0.662-1.882c-0.411-1.16-0.824-2.317-1.253-3.469
		c-0.197-0.529-0.401-1.054-0.602-1.582c-0.471-1.242-0.943-2.483-1.434-3.716c-0.05-0.126-0.103-0.249-0.153-0.375
		c-1.81-4.525-3.754-8.981-5.818-13.37c-0.169-0.36-0.334-0.722-0.504-1.081c-0.575-1.207-1.165-2.405-1.759-3.603
		c-0.232-0.468-0.462-0.937-0.697-1.403c-0.585-1.161-1.182-2.314-1.785-3.465c-0.252-0.481-0.505-0.962-0.761-1.442
		c-0.613-1.152-1.235-2.298-1.866-3.439c-0.246-0.445-0.495-0.887-0.744-1.331c-0.66-1.176-1.325-2.349-2.003-3.513
		c-0.2-0.341-0.402-0.68-0.604-1.02c-2.347-3.984-4.808-7.893-7.365-11.732c-1.151-1.727-2.314-3.444-3.507-5.138
		c-0.017-0.025-0.034-0.05-0.052-0.075c-0.867-1.231-1.749-2.449-2.637-3.662c-0.199-0.271-0.394-0.544-0.594-0.814
		c-0.841-1.139-1.693-2.269-2.553-3.393c-0.249-0.325-0.497-0.651-0.748-0.975c-0.854-1.105-1.716-2.202-2.588-3.292
		c-0.253-0.316-0.506-0.63-0.761-0.945c-0.895-1.108-1.797-2.21-2.71-3.303c-0.202-0.241-0.407-0.48-0.61-0.721
		c-0.84-0.996-1.686-1.984-2.541-2.967c-0.146-0.168-0.288-0.339-0.435-0.507l-0.002,0.013
		c-26.383-30.164-59.945-53.881-98.03-68.483c-0.005-0.002-0.01-0.003-0.014-0.005c-11.863-4.548-24.163-8.211-36.822-10.908
		c-0.263-0.056-0.525-0.116-0.788-0.171c-1.411-0.296-2.828-0.572-4.248-0.844c-0.541-0.103-1.081-0.211-1.624-0.311
		c-1.271-0.235-2.548-0.454-3.826-0.669c-0.701-0.117-1.401-0.236-2.104-0.348c-1.18-0.188-2.364-0.366-3.55-0.538
		c-0.813-0.117-1.629-0.232-2.445-0.342c-1.108-0.149-2.219-0.292-3.332-0.426c-0.911-0.109-1.823-0.213-2.737-0.313
		c-1.044-0.114-2.088-0.226-3.137-0.328c-0.843-0.082-1.687-0.155-2.532-0.229c-0.162-0.014-0.324-0.026-0.486-0.04
		c-0.976-0.083-1.953-0.167-2.933-0.238c-1.112-0.081-2.227-0.146-3.343-0.212c-0.892-0.053-1.783-0.111-2.677-0.155
		c-1.288-0.063-2.583-0.104-3.877-0.148c-0.733-0.024-1.465-0.059-2.2-0.076c-1.998-0.049-4.002-0.075-6.011-0.076
		c-0.038,0-0.077-0.001-0.117-0.001c-0.039,0-0.077,0.001-0.116,0.001c-2.009,0.001-4.013,0.027-6.01,0.076
		c-0.734,0.018-1.465,0.053-2.197,0.076c-1.295,0.043-2.591,0.085-3.882,0.148c-0.893,0.044-1.783,0.102-2.673,0.155
		c-1.116,0.066-2.233,0.131-3.345,0.212c-0.171,0.012-0.343,0.02-0.515,0.032c-0.808,0.061-1.611,0.138-2.418,0.206
		c-1.008,0.085-2.016,0.171-3.02,0.268c-1.047,0.101-2.09,0.214-3.134,0.327c-0.915,0.1-1.828,0.204-2.74,0.313
		c-1.113,0.135-2.223,0.277-3.331,0.426c-0.816,0.109-1.632,0.225-2.445,0.342c-1.185,0.172-2.368,0.348-3.548,0.538
		c-0.704,0.112-1.405,0.231-2.107,0.349c-1.277,0.216-2.553,0.435-3.824,0.669c-0.543,0.1-1.083,0.208-1.625,0.311
		c-1.418,0.271-2.834,0.548-4.243,0.844c-0.267,0.056-0.533,0.117-0.8,0.174c-12.659,2.698-24.96,6.362-36.824,10.91H167.2
		c-38.082,14.6-71.649,38.307-98.032,68.466c-0.001,0.001-0.001,0.001-0.002,0.002c-1.005,1.15-1.995,2.311-2.98,3.479
		c-0.201,0.238-0.403,0.474-0.602,0.712c-0.918,1.097-1.823,2.204-2.721,3.317c-0.249,0.308-0.498,0.617-0.746,0.927
		c-0.875,1.094-1.741,2.196-2.598,3.305c-0.247,0.32-0.493,0.642-0.738,0.963c-0.863,1.128-1.72,2.263-2.563,3.406
		c-0.194,0.263-0.385,0.529-0.577,0.792c-0.893,1.22-1.781,2.445-2.652,3.682c-0.011,0.016-0.022,0.032-0.034,0.05
		c-1.284,1.825-2.535,3.675-3.77,5.535c-2.47,3.721-4.851,7.507-7.124,11.365c-0.199,0.337-0.4,0.673-0.598,1.011
		c-0.681,1.167-1.347,2.343-2.008,3.522c-0.247,0.441-0.495,0.88-0.739,1.323c-0.632,1.142-1.255,2.292-1.869,3.446
		c-0.254,0.477-0.506,0.955-0.757,1.434c-0.604,1.152-1.202,2.308-1.788,3.471c-0.234,0.464-0.463,0.931-0.694,1.397
		c-0.595,1.199-1.187,2.399-1.762,3.609c-0.169,0.354-0.331,0.712-0.498,1.066c-2.066,4.393-4.012,8.854-5.824,13.383
		c-0.05,0.125-0.102,0.247-0.152,0.373c-0.491,1.234-0.963,2.476-1.435,3.719c-0.2,0.527-0.404,1.051-0.601,1.579
		c-0.427,1.151-0.841,2.307-1.252,3.465c-0.223,0.629-0.447,1.257-0.665,1.889c-0.388,1.123-0.766,2.25-1.138,3.381
		c-0.221,0.669-0.438,1.339-0.653,2.01c-0.359,1.12-0.711,2.243-1.054,3.371c-0.208,0.683-0.408,1.367-0.611,2.052
		c-0.334,1.134-0.667,2.27-0.985,3.411c-0.183,0.657-0.357,1.319-0.535,1.977c-0.32,1.182-0.641,2.364-0.943,3.554
		c-0.117,0.461-0.224,0.926-0.338,1.388c-0.688,2.773-1.331,5.563-1.925,8.373c-0.068,0.322-0.143,0.641-0.21,0.963
		c-0.242,1.169-0.464,2.345-0.69,3.52c-0.14,0.729-0.286,1.455-0.419,2.187c-0.204,1.114-0.392,2.233-0.58,3.352
		c-0.135,0.799-0.27,1.597-0.397,2.399c-0.174,1.099-0.337,2.202-0.497,3.306c-0.12,0.825-0.236,1.653-0.347,2.48
		c-0.148,1.098-0.289,2.199-0.422,3.302c-0.101,0.839-0.195,1.679-0.288,2.52c-0.122,1.105-0.243,2.211-0.349,3.32
		c-0.081,0.838-0.151,1.677-0.224,2.517c-0.097,1.122-0.198,2.244-0.28,3.372c-0.058,0.797-0.101,1.598-0.152,2.397
		c-0.185,2.928-0.332,5.866-0.415,8.821c-0.002,0.078-0.007,0.155-0.009,0.233c-0.062,2.283-0.098,4.572-0.098,6.87
		c0,51.062,15.43,98.515,41.872,137.969c0,0,0.001,0.002,0.002,0.003c0.645,0.962,1.304,1.916,1.962,2.869
		c0.337,0.487,0.673,0.976,1.013,1.461c0.646,0.921,1.298,1.837,1.956,2.749c0.348,0.483,0.701,0.963,1.053,1.444
		c0.682,0.93,1.363,1.86,2.058,2.78c0.162,0.215,0.329,0.427,0.492,0.642c1.49,1.963,3.011,3.9,4.558,5.817
		c0.302,0.374,0.6,0.749,0.903,1.121c0.726,0.888,1.462,1.769,2.2,2.649c0.378,0.449,0.757,0.897,1.136,1.344
		c0.741,0.87,1.488,1.738,2.24,2.598c0.339,0.387,0.684,0.77,1.025,1.155c2.583,2.911,5.232,5.761,7.947,8.546
		c0.371,0.381,0.74,0.763,1.114,1.14c0.816,0.826,1.639,1.647,2.465,2.462c0.385,0.38,0.773,0.757,1.161,1.133
		c0.86,0.837,1.721,1.671,2.593,2.495c0.13,0.123,0.261,0.242,0.391,0.364c1.935,1.82,3.899,3.608,5.892,5.365
		c0.252,0.223,0.502,0.449,0.756,0.67c0.913,0.799,1.834,1.587,2.759,2.373c0.386,0.328,0.772,0.655,1.16,0.98
		c0.926,0.778,1.857,1.551,2.793,2.314c0.321,0.261,0.644,0.519,0.966,0.779c3.152,2.542,6.368,5.01,9.644,7.399
		c0.335,0.244,0.669,0.491,1.007,0.734c1.006,0.725,2.018,1.442,3.034,2.153c0.365,0.255,0.731,0.507,1.098,0.761
		c1.057,0.73,2.117,1.457,3.186,2.172c0.026,0.017,0.053,0.034,0.079,0.052c2.473,1.652,4.979,3.259,7.514,4.823
		c0.103,0.064,0.206,0.129,0.309,0.192c1.109,0.683,2.227,1.352,3.348,2.018c0.357,0.212,0.713,0.423,1.071,0.633
		c1.109,0.65,2.221,1.294,3.341,1.928c0.28,0.158,0.562,0.314,0.843,0.471c3.674,2.06,7.404,4.029,11.19,5.905
		c0.29,0.144,0.578,0.289,0.868,0.431c1.168,0.573,2.343,1.136,3.521,1.691c0.357,0.168,0.715,0.334,1.073,0.5
		c1.212,0.564,2.427,1.123,3.65,1.668c0.014,0.007,0.029,0.013,0.045,0.019c2.839,1.265,5.705,2.477,8.599,3.637
		c0.012,0.005,0.024,0.01,0.037,0.015c22.996,9.212,47.687,15.088,73.481,17.013c6.185,0.462,12.433,0.701,18.737,0.701
		c7.286,0,14.495-0.333,21.622-0.948c24.75-2.137,48.461-7.9,70.597-16.766c0.012-0.005,0.024-0.01,0.037-0.015
		c2.894-1.16,5.761-2.372,8.599-3.637c0.014-0.006,0.029-0.012,0.045-0.019c1.221-0.544,2.434-1.102,3.644-1.666
		c0.361-0.168,0.722-0.335,1.082-0.505c1.177-0.554,2.35-1.116,3.516-1.688c0.292-0.143,0.58-0.289,0.871-0.432
		c3.784-1.875,7.513-3.844,11.185-5.903c0.283-0.158,0.565-0.314,0.847-0.474c1.117-0.632,2.227-1.274,3.333-1.923
		c0.363-0.213,0.724-0.427,1.086-0.642c1.117-0.663,2.231-1.331,3.337-2.01c0.109-0.067,0.218-0.137,0.327-0.205
		c2.52-1.555,5.01-3.152,7.47-4.793c0.037-0.025,0.075-0.05,0.112-0.074c1.065-0.712,2.121-1.436,3.174-2.164
		c0.371-0.256,0.741-0.511,1.11-0.77c1.015-0.71,2.026-1.425,3.029-2.15c0.338-0.244,0.674-0.491,1.011-0.737
		c3.274-2.387,6.488-4.853,9.638-7.395c0.323-0.261,0.648-0.52,0.97-0.782c0.935-0.762,1.863-1.532,2.786-2.308
		c0.392-0.329,0.783-0.66,1.174-0.993c0.921-0.783,1.839-1.568,2.749-2.364c0.258-0.226,0.512-0.456,0.77-0.684
		c1.982-1.749,3.938-3.528,5.863-5.339c0.136-0.128,0.274-0.253,0.41-0.382c0.871-0.823,1.731-1.657,2.59-2.492
		c0.388-0.378,0.776-0.755,1.162-1.134c0.826-0.814,1.648-1.634,2.463-2.459c0.375-0.38,0.746-0.764,1.119-1.146
		c2.714-2.785,5.362-5.634,7.944-8.543c0.341-0.385,0.685-0.767,1.024-1.154c0.753-0.859,1.497-1.725,2.237-2.595
		c0.383-0.45,0.765-0.901,1.145-1.354c0.735-0.875,1.468-1.752,2.191-2.637c0.31-0.38,0.615-0.764,0.923-1.146
		c1.535-1.903,3.046-3.827,4.526-5.776c0.169-0.222,0.341-0.442,0.509-0.664c0.693-0.918,1.372-1.845,2.053-2.773
		c0.354-0.483,0.709-0.967,1.059-1.453c0.656-0.91,1.308-1.824,1.952-2.743c0.341-0.487,0.679-0.977,1.017-1.467
		c0.657-0.952,1.316-1.904,1.96-2.866c0.001-0.001,0.001-0.002,0.002-0.003c26.442-39.453,41.872-86.907,41.872-137.969
		C504.143,253.7,504.101,251.408,504.034,249.123z"/>
	<path style="fill:#D8D8DA;" d="M268.204,8.161c0.894,0.044,1.785,0.102,2.677,0.155C269.989,8.263,269.098,8.204,268.204,8.161z"/>
	<path style="fill:#D8D8DA;" d="M262.127,7.937c0.735,0.018,1.467,0.053,2.2,0.076C263.593,7.99,262.862,7.955,262.127,7.937z"/>
	<path style="fill:#D8D8DA;" d="M274.223,8.529c0.979,0.072,1.956,0.156,2.933,0.238C276.18,8.684,275.204,8.599,274.223,8.529z"/>
	<path style="fill:#D8D8DA;" d="M241.122,8.316c0.89-0.053,1.78-0.111,2.673-0.155C242.902,8.204,242.013,8.263,241.122,8.316z"/>
	<path style="fill:#D8D8DA;" d="M256.116,7.861c-0.038,0-0.077-0.001-0.116-0.001s-0.077,0.001-0.116,0.001
		c0.038,0,0.077-0.001,0.116-0.001S256.077,7.861,256.116,7.861z"/>
	<path style="fill:#D8D8DA;" d="M247.677,8.014c0.732-0.024,1.463-0.059,2.197-0.076C249.14,7.955,248.409,7.99,247.677,8.014z"/>
	<path style="fill:#D8D8DA;" d="M237.263,503.442c6.185,0.462,12.433,0.701,18.737,0.701c7.286,0,14.495-0.333,21.622-0.948
		c-6.317-0.545-12.565-1.327-18.737-2.337C251.773,502.022,244.565,502.897,237.263,503.442z"/>
	<path style="fill:#D8D8DA;" d="M237.777,8.529c-0.171,0.012-0.343,0.02-0.514,0.032c0.021,0.001,0.043,0.002,0.064,0.004
		C237.477,8.554,237.626,8.54,237.777,8.529z"/>
	<path style="fill:#D8D8DA;" d="M428.984,433.885c-0.859,0.836-1.72,1.669-2.59,2.492
		C427.265,435.555,428.125,434.72,428.984,433.885z"/>
	<path style="fill:#D8D8DA;" d="M307.963,13.326c12.657,2.701,24.959,6.361,36.822,10.908
		C332.923,19.688,320.623,16.024,307.963,13.326z"/>
	<path style="fill:#D8D8DA;" d="M444.934,416.853c-0.74,0.869-1.485,1.736-2.237,2.595
		C443.448,418.588,444.192,417.722,444.934,416.853z"/>
	<path style="fill:#D8D8DA;" d="M425.984,436.759c-1.925,1.811-3.881,3.589-5.863,5.339
		C422.104,440.348,424.059,438.57,425.984,436.759z"/>
	<path style="fill:#D8D8DA;" d="M291.825,10.444c1.186,0.172,2.37,0.349,3.55,0.538C294.195,10.793,293.011,10.615,291.825,10.444z"
		/>
	<path style="fill:#D8D8DA;" d="M453.718,405.94c-1.48,1.949-2.99,3.873-4.526,5.776
		C450.728,409.813,452.237,407.888,453.718,405.94z"/>
	<path style="fill:#D8D8DA;" d="M297.479,11.33c1.278,0.216,2.554,0.435,3.826,0.669C300.033,11.766,298.757,11.545,297.479,11.33z"
		/>
	<path style="fill:#D8D8DA;" d="M415.429,446.138c-0.924,0.776-1.851,1.546-2.786,2.308
		C413.578,447.683,414.506,446.912,415.429,446.138z"/>
	<path style="fill:#D8D8DA;" d="M441.673,420.601c-2.582,2.91-5.23,5.759-7.944,8.543
		C436.442,426.359,439.091,423.511,441.673,420.601z"/>
	<path style="fill:#D8D8DA;" d="M302.929,12.31c1.419,0.272,2.837,0.548,4.248,0.844C305.766,12.859,304.348,12.583,302.929,12.31z"
		/>
	<path style="fill:#D8D8DA;" d="M448.269,412.861c-0.723,0.885-1.455,1.762-2.191,2.637
		C446.814,414.624,447.546,413.746,448.269,412.861z"/>
	<path style="fill:#D8D8DA;" d="M432.609,430.291c-0.815,0.825-1.637,1.646-2.463,2.459
		C430.972,431.937,431.793,431.117,432.609,430.291z"/>
	<path style="fill:#D8D8DA;" d="M419.352,442.781c-0.91,0.796-1.827,1.581-2.749,2.364
		C417.525,444.362,418.442,443.576,419.352,442.781z"/>
	<path style="fill:#D8D8DA;" d="M377.198,472.563c-3.672,2.059-7.401,4.028-11.185,5.903
		C369.797,476.59,373.527,474.622,377.198,472.563z"/>
	<path style="fill:#D8D8DA;" d="M381.378,470.166c-1.106,0.649-2.216,1.291-3.333,1.923
		C379.162,471.457,380.272,470.815,381.378,470.166z"/>
	<path style="fill:#D8D8DA;" d="M385.801,467.513c-1.106,0.681-2.22,1.348-3.337,2.01
		C383.581,468.861,384.695,468.194,385.801,467.513z"/>
	<path style="fill:#D8D8DA;" d="M365.142,478.898c-1.167,0.572-2.34,1.134-3.516,1.688
		C362.803,480.032,363.976,479.471,365.142,478.898z"/>
	<path style="fill:#D8D8DA;" d="M286.048,9.675c1.113,0.135,2.224,0.278,3.332,0.426C288.272,9.953,287.161,9.81,286.048,9.675z"/>
	<path style="fill:#D8D8DA;" d="M360.544,481.092c-1.21,0.563-2.424,1.121-3.644,1.666
		C358.121,482.213,359.333,481.655,360.544,481.092z"/>
	<path style="fill:#D8D8DA;" d="M356.856,482.776c-2.839,1.265-5.705,2.477-8.599,3.637
		C351.15,485.254,354.017,484.042,356.856,482.776z"/>
	<path style="fill:#D8D8DA;" d="M411.673,449.227c-3.151,2.541-6.364,5.006-9.638,7.395
		C405.309,454.233,408.522,451.768,411.673,449.227z"/>
	<path style="fill:#D8D8DA;" d="M401.024,457.359c-1.004,0.724-2.015,1.44-3.029,2.15
		C399.009,458.799,400.02,458.083,401.024,457.359z"/>
	<path style="fill:#D8D8DA;" d="M396.884,460.278c-1.053,0.728-2.11,1.452-3.174,2.164
		C394.776,461.73,395.831,461.006,396.884,460.278z"/>
	<path style="fill:#D8D8DA;" d="M393.598,462.516c-2.459,1.642-4.95,3.238-7.47,4.793
		C388.648,465.754,391.139,464.158,393.598,462.516z"/>
	<path style="fill:#D8D8DA;" d="M280.175,9.035c1.048,0.101,2.092,0.214,3.137,0.328C282.267,9.249,281.222,9.136,280.175,9.035z"/>
	<path style="fill:#D8D8DA;" d="M492.371,180.318c0.359,1.121,0.711,2.244,1.054,3.372
		C493.082,182.562,492.73,181.438,492.371,180.318z"/>
	<path style="fill:#D8D8DA;" d="M478.393,145.848c0.594,1.196,1.184,2.395,1.759,3.603
		C479.579,148.244,478.988,147.045,478.393,145.848z"/>
	<path style="fill:#D8D8DA;" d="M475.912,140.982c0.603,1.15,1.199,2.304,1.785,3.465
		C477.112,143.286,476.515,142.132,475.912,140.982z"/>
	<path style="fill:#D8D8DA;" d="M490.579,174.924c0.389,1.124,0.767,2.254,1.139,3.385
		C491.346,177.177,490.968,176.049,490.579,174.924z"/>
</g>
<path style="fill:#FFFFFF;" d="M465.007,227.315c1.084,9.414,1.66,18.982,1.66,28.687c0,52.886-16.557,101.899-44.753,142.163
	l40.355-4.194c26.442-39.453,41.872-86.907,41.872-137.969c0-5.367-0.19-10.687-0.526-15.969c0.191,3.018,0.344,6.049,0.426,9.095
	L465.007,227.315z"/>
<g>
	<path style="fill:#D8D8DA;" d="M488.664,169.574c0.427,1.152,0.842,2.309,1.253,3.469
		C489.505,171.883,489.091,170.725,488.664,169.574z"/>
	<path style="fill:#D8D8DA;" d="M480.658,150.532c2.064,4.389,4.008,8.845,5.818,13.37
		C484.666,159.377,482.721,154.921,480.658,150.532z"/>
	<path style="fill:#D8D8DA;" d="M486.629,164.277c0.49,1.233,0.962,2.474,1.434,3.716
		C487.591,166.751,487.119,165.509,486.629,164.277z"/>
</g>
<path style="fill:#FFFFFF;" d="M434.654,134.031l8.179-41.319c1.004,1.148,1.992,2.308,2.976,3.474
	C418.993,64.372,384.331,39.396,344.8,24.24l-14.205,10.321C374.32,56.733,410.586,91.474,434.654,134.031z"/>
<path style="fill:#D8D8DA;" d="M453.225,105.421c0.86,1.124,1.713,2.254,2.553,3.393
	C454.938,107.675,454.085,106.546,453.225,105.421z"/>
<path style="fill:#FFFFFF;" d="M352.873,464.655c-27.971,18.048-59.806,30.612-93.988,36.203c6.172,1.01,12.42,1.792,18.737,2.337
	c24.75-2.137,48.461-7.9,70.597-16.766L352.873,464.655z"/>
<g>
	<path style="fill:#D8D8DA;" d="M456.373,109.629c0.888,1.213,1.771,2.433,2.637,3.662
		C458.144,112.061,457.261,110.843,456.373,109.629z"/>
	<path style="fill:#D8D8DA;" d="M473.286,136.101c0.631,1.14,1.252,2.287,1.866,3.439
		C474.538,138.388,473.917,137.241,473.286,136.101z"/>
	<path style="fill:#D8D8DA;" d="M470.539,131.257c0.679,1.164,1.343,2.337,2.003,3.513
		C471.882,133.593,471.217,132.421,470.539,131.257z"/>
	<path style="fill:#D8D8DA;" d="M459.063,113.367c3.845,5.464,7.47,11.093,10.873,16.87
		C466.532,124.46,462.907,118.831,459.063,113.367z"/>
	<path style="fill:#D8D8DA;" d="M501.058,216.856c0.175,1.104,0.339,2.211,0.499,3.319
		C501.398,219.067,501.233,217.96,501.058,216.856z"/>
	<path style="fill:#D8D8DA;" d="M501.903,222.643c0.148,1.103,0.291,2.208,0.423,3.316
		C502.193,224.852,502.051,223.747,501.903,222.643z"/>
	<path style="fill:#D8D8DA;" d="M502.613,228.458c0.123,1.111,0.244,2.222,0.351,3.338
		C502.856,230.68,502.736,229.569,502.613,228.458z"/>
	<path style="fill:#D8D8DA;" d="M462.268,393.973c-0.644,0.962-1.302,1.914-1.96,2.866
		C460.966,395.887,461.623,394.935,462.268,393.973z"/>
	<path style="fill:#D8D8DA;" d="M503.186,234.294c0.098,1.129,0.199,2.258,0.282,3.391
		C503.385,236.551,503.285,235.422,503.186,234.294z"/>
	<path style="fill:#D8D8DA;" d="M446.419,96.907c0.914,1.093,1.815,2.195,2.71,3.303C448.234,99.101,447.332,97.998,446.419,96.907z
		"/>
	<path style="fill:#D8D8DA;" d="M456.279,402.502c-0.68,0.928-1.36,1.855-2.053,2.773C454.919,404.357,455.6,403.43,456.279,402.502
		z"/>
	<path style="fill:#D8D8DA;" d="M459.292,398.306c-0.644,0.919-1.295,1.833-1.952,2.743
		C457.996,400.139,458.647,399.225,459.292,398.306z"/>
	<path style="fill:#D8D8DA;" d="M449.89,101.154c0.872,1.09,1.734,2.187,2.588,3.292
		C451.624,103.341,450.761,102.244,449.89,101.154z"/>
	<path style="fill:#D8D8DA;" d="M496.826,196.02c0.697,2.808,1.349,5.633,1.95,8.477
		C498.175,201.652,497.523,198.827,496.826,196.02z"/>
	<path style="fill:#D8D8DA;" d="M495.555,191.122c0.32,1.187,0.643,2.373,0.946,3.566
		C496.198,193.494,495.875,192.309,495.555,191.122z"/>
	<path style="fill:#D8D8DA;" d="M494.036,185.739c0.335,1.135,0.667,2.271,0.986,3.413
		C494.703,188.01,494.37,186.875,494.036,185.739z"/>
	<path style="fill:#D8D8DA;" d="M498.972,205.402c0.243,1.175,0.466,2.358,0.694,3.539
		C499.439,207.76,499.216,206.577,498.972,205.402z"/>
	<path style="fill:#D8D8DA;" d="M500.081,211.108c0.205,1.119,0.394,2.244,0.583,3.369
		C500.474,213.351,500.286,212.227,500.081,211.108z"/>
	<path style="fill:#D8D8DA;" d="M78.275,429.148c-2.714-2.786-5.364-5.635-7.947-8.546
		C72.911,423.512,75.561,426.362,78.275,429.148z"/>
	<path style="fill:#D8D8DA;" d="M81.854,432.751c-0.827-0.815-1.65-1.636-2.465-2.462C80.206,431.115,81.027,431.936,81.854,432.751
		z"/>
	<path style="fill:#D8D8DA;" d="M69.305,419.448c-0.754-0.86-1.499-1.728-2.24-2.598C67.806,417.72,68.55,418.587,69.305,419.448z"
		/>
	<path style="fill:#D8D8DA;" d="M8.533,237.681c0.082-1.127,0.182-2.248,0.28-3.372C8.715,235.433,8.615,236.554,8.533,237.681z"/>
	<path style="fill:#D8D8DA;" d="M85.608,436.379c-0.872-0.823-1.733-1.659-2.593-2.495C83.875,434.72,84.736,435.556,85.608,436.379
		z"/>
	<path style="fill:#D8D8DA;" d="M91.891,442.109c-1.992-1.758-3.957-3.545-5.892-5.365C87.933,438.564,89.898,440.35,91.891,442.109
		z"/>
	<path style="fill:#D8D8DA;" d="M51.695,396.842c-0.658-0.953-1.317-1.906-1.962-2.869
		C50.378,394.936,51.035,395.889,51.695,396.842z"/>
	<path style="fill:#D8D8DA;" d="M95.405,445.151c-0.925-0.786-1.846-1.574-2.759-2.373C93.559,443.577,94.48,444.366,95.405,445.151
		z"/>
	<path style="fill:#D8D8DA;" d="M7.966,248.898c0.083-2.954,0.23-5.893,0.415-8.821C8.196,243.005,8.049,245.944,7.966,248.898z"/>
	<path style="fill:#D8D8DA;" d="M54.663,401.053c-0.658-0.912-1.311-1.828-1.956-2.749C53.353,399.225,54.005,400.14,54.663,401.053
		z"/>
	<path style="fill:#D8D8DA;" d="M62.823,411.735c-1.547-1.916-3.067-3.854-4.558-5.817
		C59.757,407.881,61.277,409.819,62.823,411.735z"/>
	<path style="fill:#D8D8DA;" d="M57.775,405.277c-0.694-0.921-1.376-1.85-2.058-2.78C56.398,403.427,57.08,404.357,57.775,405.277z"
		/>
	<path style="fill:#D8D8DA;" d="M65.927,415.505c-0.738-0.879-1.474-1.759-2.2-2.648C64.453,413.745,65.188,414.627,65.927,415.505z
		"/>
	<path style="fill:#D8D8DA;" d="M150.378,480.589c-1.179-0.555-2.353-1.118-3.521-1.691
		C148.025,479.471,149.2,480.033,150.378,480.589z"/>
	<path style="fill:#D8D8DA;" d="M145.99,478.466c-3.786-1.876-7.517-3.845-11.19-5.905
		C138.472,474.621,142.204,476.59,145.99,478.466z"/>
	<path style="fill:#D8D8DA;" d="M163.744,486.414c-2.894-1.16-5.761-2.372-8.599-3.637
		C157.983,484.042,160.85,485.254,163.744,486.414z"/>
	<path style="fill:#D8D8DA;" d="M133.957,472.09c-1.119-0.633-2.232-1.277-3.341-1.928
		C131.725,470.813,132.837,471.456,133.957,472.09z"/>
	<path style="fill:#D8D8DA;" d="M155.101,482.757c-1.222-0.545-2.438-1.104-3.65-1.668
		C152.663,481.653,153.877,482.212,155.101,482.757z"/>
	<path style="fill:#D8D8DA;" d="M109.968,456.623c-3.276-2.389-6.492-4.857-9.644-7.399
		C103.477,451.768,106.692,454.234,109.968,456.623z"/>
	<path style="fill:#D8D8DA;" d="M99.358,448.446c-0.938-0.764-1.868-1.536-2.793-2.314C97.49,446.909,98.42,447.682,99.358,448.446z
		"/>
	<path style="fill:#D8D8DA;" d="M114.011,459.511c-1.017-0.711-2.029-1.428-3.034-2.153
		C111.981,458.083,112.994,458.8,114.011,459.511z"/>
	<path style="fill:#D8D8DA;" d="M125.887,467.319c-2.535-1.564-5.041-3.171-7.514-4.823
		C120.846,464.149,123.352,465.755,125.887,467.319z"/>
	<path style="fill:#D8D8DA;" d="M129.545,469.53c-1.121-0.665-2.239-1.335-3.348-2.018
		C127.306,468.194,128.424,468.863,129.545,469.53z"/>
	<path style="fill:#D8D8DA;" d="M118.294,462.445c-1.07-0.715-2.129-1.442-3.186-2.173
		C116.165,461.003,117.225,461.73,118.294,462.445z"/>
	<path style="fill:#D8D8DA;" d="M210.697,11.999c1.271-0.235,2.547-0.454,3.824-0.669C213.243,11.545,211.967,11.766,210.697,11.999
		z"/>
	<path style="fill:#D8D8DA;" d="M25.524,163.902c1.812-4.529,3.758-8.99,5.824-13.383C29.282,154.912,27.336,159.373,25.524,163.902
		z"/>
	<path style="fill:#D8D8DA;" d="M228.692,9.362c1.043-0.114,2.087-0.226,3.134-0.327C230.778,9.136,229.735,9.248,228.692,9.362z"/>
	<path style="fill:#D8D8DA;" d="M23.937,167.994c0.472-1.243,0.944-2.486,1.435-3.719C24.881,165.507,24.409,166.75,23.937,167.994z
		"/>
	<path style="fill:#D8D8DA;" d="M31.847,149.452c0.576-1.209,1.168-2.411,1.762-3.609C33.014,147.041,32.423,148.242,31.847,149.452
		z"/>
	<path style="fill:#D8D8DA;" d="M13.237,204.442c0.594-2.809,1.238-5.6,1.925-8.373C14.474,198.843,13.83,201.634,13.237,204.442z"
		/>
	<path style="fill:#D8D8DA;" d="M34.303,144.446c0.586-1.163,1.184-2.318,1.788-3.471C35.487,142.127,34.89,143.283,34.303,144.446z
		"/>
</g>
<path style="fill:#ACABB1;" d="M51.101,256.002c0-10.891,0.708-21.616,2.068-32.135L7.957,249.132
	c-0.062,2.283-0.098,4.572-0.098,6.87c0,51.062,15.43,98.515,41.872,137.969l46.572,4.84
	C67.831,358.426,51.101,309.169,51.101,256.002z"/>
<g>
	<path style="fill:#D8D8DA;" d="M15.5,194.683c0.303-1.189,0.624-2.371,0.943-3.554C16.124,192.312,15.803,193.494,15.5,194.683z"/>
	<path style="fill:#D8D8DA;" d="M36.849,139.54c0.615-1.154,1.237-2.303,1.869-3.446C38.085,137.238,37.462,138.387,36.849,139.54z"
		/>
	<path style="fill:#D8D8DA;" d="M20.282,178.307c0.373-1.13,0.751-2.258,1.138-3.381C21.032,176.049,20.655,177.177,20.282,178.307z
		"/>
	<path style="fill:#D8D8DA;" d="M18.575,183.688c0.343-1.127,0.696-2.249,1.054-3.371C19.271,181.438,18.918,182.561,18.575,183.688
		z"/>
	<path style="fill:#D8D8DA;" d="M16.979,189.152c0.319-1.141,0.651-2.277,0.985-3.411C17.63,186.875,17.297,188.01,16.979,189.152z"
		/>
	<path style="fill:#D8D8DA;" d="M22.086,173.038c0.411-1.159,0.823-2.315,1.252-3.465C22.91,170.723,22.497,171.88,22.086,173.038z"
		/>
	<path style="fill:#D8D8DA;" d="M62.867,100.215c0.898-1.113,1.804-2.22,2.721-3.317C64.671,97.995,63.765,99.102,62.867,100.215z"
		/>
	<path style="fill:#D8D8DA;" d="M66.191,96.186c0.984-1.168,1.974-2.331,2.98-3.479C68.165,93.857,67.175,95.019,66.191,96.186z"/>
	<path style="fill:#D8D8DA;" d="M59.523,104.447c0.857-1.109,1.723-2.211,2.598-3.305C61.246,102.236,60.38,103.337,59.523,104.447z
		"/>
	<path style="fill:#D8D8DA;" d="M39.457,134.772c0.661-1.179,1.328-2.355,2.008-3.522C40.784,132.418,40.118,133.593,39.457,134.772
		z"/>
	<path style="fill:#D8D8DA;" d="M204.83,13.154c1.409-0.296,2.826-0.571,4.243-0.844C207.654,12.582,206.238,12.858,204.83,13.154z"
		/>
	<path style="fill:#D8D8DA;" d="M167.205,24.238c11.864-4.549,24.166-8.208,36.824-10.91
		C191.369,16.026,179.069,19.69,167.205,24.238z"/>
	<path style="fill:#D8D8DA;" d="M216.628,10.982c1.18-0.188,2.363-0.366,3.548-0.538C218.991,10.615,217.807,10.793,216.628,10.982z
		"/>
	<path style="fill:#D8D8DA;" d="M222.621,10.101c1.108-0.149,2.218-0.292,3.331-0.426C224.839,9.81,223.729,9.953,222.621,10.101z"
		/>
	<path style="fill:#D8D8DA;" d="M42.063,130.241c3.409-5.786,7.041-11.427,10.894-16.901
		C49.104,118.814,45.472,124.453,42.063,130.241z"/>
	<path style="fill:#D8D8DA;" d="M56.22,108.816c0.844-1.143,1.701-2.278,2.563-3.406C57.92,106.539,57.064,107.673,56.22,108.816z"
		/>
	<path style="fill:#D8D8DA;" d="M52.991,113.29c0.871-1.237,1.758-2.461,2.652-3.682C54.749,110.829,53.862,112.053,52.991,113.29z"
		/>
</g>
<path style="fill:#ACABB1;" d="M183.812,36.306l-16.608-12.068c-38.082,14.6-71.648,38.307-98.031,68.466l9.72,49.107
	C102.252,96.829,138.979,59.911,183.812,36.306z"/>
<g>
	<path style="fill:#D8D8DA;" d="M10.443,220.169c0.16-1.104,0.323-2.207,0.497-3.306C10.766,217.962,10.603,219.065,10.443,220.169z
		"/>
	<path style="fill:#D8D8DA;" d="M11.339,214.464c0.188-1.119,0.377-2.238,0.58-3.352C11.715,212.226,11.527,213.345,11.339,214.464z
		"/>
	<path style="fill:#D8D8DA;" d="M12.337,208.925c0.226-1.175,0.448-2.351,0.69-3.52C12.785,206.575,12.563,207.751,12.337,208.925z"
		/>
	<path style="fill:#D8D8DA;" d="M9.675,225.952c0.133-1.103,0.274-2.203,0.422-3.302C9.949,223.749,9.807,224.849,9.675,225.952z"/>
	<path style="fill:#D8D8DA;" d="M9.036,231.793c0.107-1.109,0.228-2.215,0.349-3.32C9.264,229.577,9.144,230.682,9.036,231.793z"/>
</g>
<path style="fill:#ACABB1;" d="M158.162,460.141l5.619,26.288c22.996,9.212,47.687,15.088,73.481,17.013
	c7.301-0.545,14.51-1.42,21.622-2.584C221.925,494.813,187.717,480.605,158.162,460.141z"/>
<g>
	<path style="fill:#D8D8DA;" d="M237.326,8.565c-0.021-0.002-0.043-0.002-0.064-0.004c-0.808,0.061-1.611,0.138-2.418,0.206
		C235.672,8.697,236.498,8.627,237.326,8.565z"/>
	<path style="fill:#D8D8DA;" d="M421.915,398.165c28.196-40.264,44.753-89.277,44.753-142.163c0-9.705-0.576-19.273-1.66-28.687
		l-43.957-24.563l13.603-68.721c-24.069-42.556-60.334-77.297-104.059-99.469l-74.593,54.194l-72.19-52.449
		C138.98,59.911,102.253,96.829,78.893,141.812l12.063,60.94L53.17,223.867c-1.36,10.52-2.068,21.245-2.068,32.135
		c0,53.168,16.73,102.424,45.2,142.809l49.858,5.183l12.002,56.148c29.554,20.464,63.763,34.671,100.722,40.718
		c34.182-5.592,66.017-18.156,93.988-36.203l12.967-60.662L421.915,398.165z M315.81,348.038H196.196l-36.963-113.759l96.769-70.307
		l96.769,70.307L315.81,348.038z"/>
</g>
<g>
	<polygon style="fill:#2D2D2D;" points="159.234,234.279 196.196,348.038 315.81,348.038 352.773,234.279 256.004,163.973 	"/>
	<path style="fill:#2D2D2D;" d="M243.795,8.161c1.29-0.063,2.586-0.104,3.882-0.148C246.382,8.057,245.085,8.098,243.795,8.161z"/>
	<path style="fill:#2D2D2D;" d="M249.873,7.937c1.998-0.049,4.001-0.075,6.01-0.076C253.875,7.862,251.871,7.888,249.873,7.937z"/>
	<path style="fill:#2D2D2D;" d="M237.777,8.529c1.112-0.081,2.229-0.146,3.345-0.212C240.006,8.383,238.89,8.447,237.777,8.529z"/>
	<path style="fill:#2D2D2D;" d="M264.327,8.014c1.294,0.043,2.588,0.085,3.877,0.148C266.915,8.098,265.62,8.057,264.327,8.014z"/>
	<path style="fill:#2D2D2D;" d="M277.643,8.806c-0.162-0.014-0.324-0.026-0.486-0.04c0.155,0.013,0.31,0.028,0.465,0.042
		C277.628,8.807,277.635,8.807,277.643,8.806z"/>
	<path style="fill:#2D2D2D;" d="M270.881,8.316c1.116,0.066,2.231,0.132,3.343,0.212C273.112,8.447,271.996,8.383,270.881,8.316z"/>
	<path style="fill:#2D2D2D;" d="M256.116,7.861c2.009,0.001,4.013,0.027,6.011,0.076C260.129,7.888,258.125,7.862,256.116,7.861z"/>
	<path style="fill:#2D2D2D;" d="M295.375,10.982c0.703,0.112,1.403,0.231,2.104,0.348C296.778,11.211,296.078,11.094,295.375,10.982
		z"/>
	<path style="fill:#2D2D2D;" d="M289.38,10.101c0.816,0.109,1.632,0.224,2.445,0.342C291.012,10.326,290.197,10.212,289.38,10.101z"
		/>
	<path style="fill:#2D2D2D;" d="M344.801,24.24l-0.015-0.005L344.801,24.24z"/>
	<path style="fill:#2D2D2D;" d="M280.175,9.035c-0.843-0.082-1.687-0.155-2.532-0.229c-0.007,0-0.014,0.001-0.02,0.002
		C278.473,8.881,279.325,8.953,280.175,9.035z"/>
	<path style="fill:#2D2D2D;" d="M301.305,11.999c0.543,0.1,1.083,0.208,1.624,0.311C302.388,12.207,301.847,12.1,301.305,11.999z"/>
	<path style="fill:#2D2D2D;" d="M307.176,13.155c0.263,0.056,0.525,0.115,0.788,0.171C307.7,13.271,307.439,13.211,307.176,13.155z"
		/>
	<path style="fill:#2D2D2D;" d="M283.311,9.362c0.914,0.1,1.826,0.203,2.737,0.313C285.137,9.566,284.225,9.463,283.311,9.362z"/>
	<path style="fill:#2D2D2D;" d="M225.952,9.675c0.912-0.109,1.825-0.213,2.74-0.313C227.777,9.462,226.864,9.566,225.952,9.675z"/>
	<path style="fill:#2D2D2D;" d="M214.52,11.33c0.702-0.119,1.403-0.237,2.107-0.349C215.924,11.094,215.222,11.211,214.52,11.33z"/>
	<path style="fill:#2D2D2D;" d="M220.176,10.444c0.814-0.117,1.629-0.232,2.445-0.342C221.805,10.212,220.989,10.326,220.176,10.444
		z"/>
	<polygon style="fill:#2D2D2D;" points="167.204,24.238 167.204,24.238 167.205,24.238 	"/>
	<path style="fill:#2D2D2D;" d="M231.825,9.035c1.005-0.097,2.012-0.183,3.02-0.268C233.838,8.852,232.83,8.938,231.825,9.035z"/>
	<path style="fill:#2D2D2D;" d="M204.029,13.328c0.267-0.057,0.533-0.117,0.8-0.174C204.562,13.21,204.296,13.272,204.029,13.328z"
		/>
	<path style="fill:#2D2D2D;" d="M209.072,12.31c0.542-0.104,1.082-0.211,1.625-0.311C210.154,12.1,209.614,12.207,209.072,12.31z"/>
	<path style="fill:#2D2D2D;" d="M258.884,11.145c6.172-1.01,12.42-1.792,18.737-2.337c-0.155-0.013-0.31-0.028-0.465-0.042
		c-0.976-0.083-1.953-0.167-2.933-0.238c-1.112-0.081-2.227-0.146-3.343-0.212c-0.892-0.053-1.783-0.111-2.677-0.155
		c-1.288-0.063-2.583-0.104-3.877-0.148c-0.733-0.024-1.465-0.059-2.2-0.076c-1.998-0.049-4.002-0.075-6.011-0.076
		c-0.038,0-0.077-0.001-0.117-0.001c-0.039,0-0.077,0.001-0.116,0.001c-2.009,0.001-4.013,0.027-6.01,0.076
		c-0.734,0.018-1.465,0.053-2.197,0.076c-1.295,0.043-2.591,0.085-3.882,0.148c-0.893,0.044-1.783,0.102-2.673,0.155
		c-1.116,0.066-2.233,0.131-3.345,0.212c-0.151,0.011-0.3,0.025-0.451,0.036C244.606,9.11,251.793,9.984,258.884,11.145z"/>
</g>
<path style="fill:#3E3D43;" d="M258.884,11.145c25.409,4.157,49.52,12.163,71.711,23.415L344.8,24.239
	c-0.005-0.002-0.01-0.003-0.014-0.005c-11.863-4.548-24.165-8.208-36.822-10.908c-0.263-0.056-0.525-0.116-0.788-0.171
	c-1.411-0.296-2.828-0.572-4.248-0.844c-0.541-0.103-1.081-0.211-1.624-0.311c-1.271-0.235-2.548-0.454-3.826-0.669
	c-0.701-0.117-1.401-0.236-2.104-0.348c-1.18-0.188-2.364-0.366-3.55-0.538c-0.813-0.117-1.629-0.232-2.445-0.342
	c-1.108-0.149-2.219-0.292-3.332-0.426c-0.911-0.109-1.823-0.213-2.737-0.313c-1.044-0.114-2.088-0.226-3.137-0.328
	c-0.849-0.082-1.702-0.153-2.553-0.227C271.305,9.353,265.057,10.135,258.884,11.145z"/>
<path style="fill:#010101;" d="M258.884,11.145c-7.091-1.161-14.278-2.035-21.558-2.58c-0.828,0.062-1.655,0.132-2.48,0.202
	c-1.008,0.085-2.016,0.171-3.02,0.268c-1.047,0.101-2.09,0.214-3.134,0.327c-0.915,0.1-1.828,0.204-2.74,0.313
	c-1.113,0.135-2.223,0.277-3.331,0.426c-0.816,0.109-1.632,0.225-2.445,0.342c-1.185,0.172-2.368,0.348-3.548,0.538
	c-0.704,0.112-1.405,0.231-2.107,0.349c-1.277,0.216-2.553,0.435-3.824,0.669c-0.543,0.1-1.083,0.208-1.625,0.311
	c-1.418,0.271-2.834,0.548-4.243,0.844c-0.267,0.056-0.533,0.117-0.8,0.174c-12.657,2.701-24.96,6.362-36.824,10.91h-0.001
	l16.608,12.068C206.924,24.138,232.186,15.512,258.884,11.145z"/>
<g>
	<path style="fill:#2D2D2D;" d="M256.004,88.755l74.593-54.195c-22.191-11.253-46.303-19.259-71.711-23.415
		c-26.698,4.367-51.96,12.994-75.072,25.162L256.004,88.755z"/>
	<path style="fill:#2D2D2D;" d="M459.01,113.292c0.017,0.025,0.034,0.05,0.052,0.075
		C459.044,113.342,459.027,113.316,459.01,113.292z"/>
	<path style="fill:#2D2D2D;" d="M488.062,167.993c0.201,0.528,0.405,1.052,0.602,1.582
		C488.467,169.045,488.262,168.52,488.062,167.993z"/>
	<path style="fill:#2D2D2D;" d="M455.778,108.814c0.2,0.27,0.396,0.544,0.594,0.814
		C456.174,109.357,455.978,109.085,455.778,108.814z"/>
	<path style="fill:#2D2D2D;" d="M452.477,104.446c0.25,0.324,0.499,0.65,0.748,0.975
		C452.976,105.096,452.728,104.77,452.477,104.446z"/>
	<path style="fill:#2D2D2D;" d="M493.426,183.689c0.208,0.682,0.408,1.366,0.61,2.05
		C493.834,185.055,493.633,184.371,493.426,183.689z"/>
	<path style="fill:#2D2D2D;" d="M489.916,173.043c0.222,0.627,0.446,1.253,0.662,1.882
		C490.362,174.295,490.138,173.67,489.916,173.043z"/>
	<path style="fill:#2D2D2D;" d="M495.021,189.153c0.182,0.654,0.355,1.313,0.533,1.969
		C495.377,190.465,495.204,189.807,495.021,189.153z"/>
	<path style="fill:#2D2D2D;" d="M445.808,96.185c0.203,0.241,0.408,0.48,0.61,0.721C446.216,96.665,446.011,96.425,445.808,96.185z"
		/>
	<path style="fill:#2D2D2D;" d="M449.128,100.209c0.254,0.315,0.508,0.629,0.761,0.945
		C449.636,100.838,449.382,100.523,449.128,100.209z"/>
	<path style="fill:#2D2D2D;" d="M480.153,149.451c0.171,0.359,0.335,0.721,0.504,1.081
		C480.489,150.172,480.324,149.81,480.153,149.451z"/>
	<path style="fill:#2D2D2D;" d="M502.327,225.96c0.1,0.832,0.193,1.665,0.286,2.499C502.52,227.625,502.427,226.79,502.327,225.96z"
		/>
	<path style="fill:#2D2D2D;" d="M475.151,139.539c0.255,0.48,0.508,0.96,0.761,1.442
		C475.66,140.501,475.407,140.019,475.151,139.539z"/>
	<path style="fill:#2D2D2D;" d="M491.719,178.309c0.22,0.668,0.438,1.338,0.652,2.008
		C492.157,179.647,491.939,178.977,491.719,178.309z"/>
	<path style="fill:#2D2D2D;" d="M500.663,214.475c0.134,0.793,0.268,1.585,0.395,2.381
		C500.932,216.061,500.797,215.268,500.663,214.475z"/>
	<path style="fill:#2D2D2D;" d="M469.935,130.237c0.201,0.34,0.404,0.679,0.604,1.02
		C470.34,130.915,470.136,130.577,469.935,130.237z"/>
	<path style="fill:#2D2D2D;" d="M477.697,144.447c0.235,0.466,0.465,0.935,0.697,1.403
		C478.162,145.381,477.932,144.912,477.697,144.447z"/>
	<path style="fill:#2D2D2D;" d="M501.558,220.175c0.118,0.821,0.235,1.644,0.345,2.467
		C501.792,221.819,501.676,220.997,501.558,220.175z"/>
	<path style="fill:#2D2D2D;" d="M499.666,208.941c0.139,0.722,0.283,1.442,0.415,2.166
		C499.948,210.383,499.805,209.663,499.666,208.941z"/>
	<path style="fill:#2D2D2D;" d="M472.542,134.77c0.249,0.444,0.498,0.886,0.744,1.331
		C473.04,135.656,472.791,135.214,472.542,134.77z"/>
	<path style="fill:#2D2D2D;" d="M502.965,231.797c0.081,0.831,0.15,1.665,0.222,2.498
		C503.115,233.461,503.045,232.627,502.965,231.797z"/>
	<path style="fill:#2D2D2D;" d="M496.501,194.688c0.112,0.443,0.215,0.888,0.325,1.331
		C496.715,195.576,496.613,195.13,496.501,194.688z"/>
	<path style="fill:#2D2D2D;" d="M498.775,204.497c0.064,0.303,0.135,0.603,0.198,0.905C498.909,205.1,498.839,204.8,498.775,204.497
		z"/>
	<path style="fill:#2D2D2D;" d="M486.476,163.902c0.05,0.126,0.103,0.249,0.153,0.375
		C486.578,164.151,486.525,164.027,486.476,163.902z"/>
	<path style="fill:#2D2D2D;" d="M503.468,237.684c0.057,0.781,0.099,1.566,0.149,2.348
		C503.566,239.25,503.525,238.465,503.468,237.684z"/>
</g>
<path style="fill:#3E3D43;" d="M434.654,134.031c15.913,28.137,26.485,59.689,30.353,93.284l39.036,21.813
	c-0.083-3.047-0.235-6.077-0.426-9.095c-0.05-0.783-0.092-1.568-0.149-2.348c-0.083-1.133-0.183-2.262-0.282-3.391
	c-0.072-0.834-0.142-1.667-0.222-2.498c-0.107-1.115-0.229-2.227-0.351-3.338c-0.092-0.834-0.185-1.667-0.286-2.499
	c-0.134-1.108-0.275-2.213-0.423-3.316c-0.11-0.823-0.227-1.646-0.345-2.467c-0.16-1.108-0.324-2.216-0.499-3.319
	c-0.127-0.795-0.261-1.588-0.395-2.381c-0.189-1.124-0.379-2.248-0.583-3.369c-0.133-0.724-0.276-1.444-0.415-2.166
	c-0.227-1.181-0.45-2.363-0.694-3.539c-0.063-0.303-0.134-0.603-0.198-0.905c-0.601-2.845-1.252-5.67-1.95-8.477
	c-0.11-0.444-0.213-0.889-0.325-1.331c-0.304-1.194-0.626-2.38-0.946-3.566c-0.177-0.656-0.35-1.315-0.533-1.969
	c-0.318-1.141-0.651-2.278-0.987-3.413c-0.202-0.685-0.402-1.368-0.61-2.05c-0.343-1.127-0.696-2.25-1.054-3.372
	c-0.215-0.67-0.432-1.34-0.652-2.008c-0.373-1.131-0.751-2.261-1.139-3.385c-0.218-0.629-0.441-1.256-0.662-1.882
	c-0.411-1.16-0.824-2.317-1.253-3.469c-0.197-0.529-0.401-1.054-0.602-1.582c-0.471-1.242-0.943-2.483-1.434-3.716
	c-0.05-0.126-0.103-0.249-0.153-0.375c-1.81-4.525-3.754-8.981-5.818-13.37c-0.169-0.36-0.334-0.722-0.504-1.081
	c-0.575-1.207-1.165-2.405-1.759-3.603c-0.232-0.468-0.462-0.937-0.697-1.403c-0.585-1.161-1.182-2.314-1.785-3.465
	c-0.252-0.481-0.505-0.962-0.761-1.442c-0.613-1.152-1.235-2.298-1.866-3.439c-0.246-0.445-0.495-0.887-0.744-1.331
	c-0.66-1.176-1.325-2.349-2.003-3.513c-0.2-0.341-0.402-0.68-0.604-1.02c-3.403-5.776-7.028-11.406-10.873-16.87
	c-0.017-0.025-0.034-0.05-0.052-0.075c-0.867-1.231-1.749-2.449-2.637-3.662c-0.199-0.271-0.394-0.544-0.594-0.814
	c-0.841-1.139-1.693-2.269-2.553-3.393c-0.249-0.325-0.497-0.651-0.748-0.975c-0.854-1.105-1.716-2.202-2.588-3.292
	c-0.253-0.316-0.506-0.63-0.761-0.945c-0.895-1.108-1.797-2.21-2.71-3.303c-0.202-0.241-0.407-0.48-0.61-0.721
	c-0.982-1.166-1.972-2.326-2.976-3.474L434.654,134.031z"/>
<g>
	<path style="fill:#2D2D2D;" d="M465.007,227.315c-3.868-33.595-14.44-65.147-30.353-93.284l-13.603,68.721L465.007,227.315z"/>
	<path style="fill:#2D2D2D;" d="M36.091,140.976c0.251-0.479,0.502-0.957,0.757-1.434C36.594,140.017,36.342,140.497,36.091,140.976
		z"/>
	<path style="fill:#2D2D2D;" d="M9.386,228.472c0.093-0.842,0.186-1.681,0.288-2.52C9.573,226.79,9.479,227.631,9.386,228.472z"/>
	<path style="fill:#2D2D2D;" d="M19.629,180.318c0.215-0.671,0.432-1.342,0.653-2.01C20.061,178.976,19.844,179.646,19.629,180.318z
		"/>
	<path style="fill:#2D2D2D;" d="M17.964,185.74c0.202-0.685,0.403-1.37,0.611-2.052C18.368,184.37,18.166,185.056,17.964,185.74z"/>
	<path style="fill:#2D2D2D;" d="M69.172,92.705l-0.002,0.002L69.172,92.705z"/>
	<path style="fill:#2D2D2D;" d="M23.338,169.573c0.196-0.528,0.401-1.052,0.601-1.579C23.738,168.52,23.533,169.044,23.338,169.573z
		"/>
	<path style="fill:#2D2D2D;" d="M21.42,174.926c0.218-0.631,0.443-1.26,0.665-1.889C21.863,173.667,21.639,174.294,21.42,174.926z"
		/>
	<path style="fill:#2D2D2D;" d="M7.957,249.131L7.957,249.131c0.002-0.078,0.007-0.155,0.009-0.233
		C7.964,248.976,7.959,249.053,7.957,249.131z"/>
	<path style="fill:#2D2D2D;" d="M10.096,222.651c0.111-0.828,0.228-1.655,0.347-2.48C10.324,220.996,10.207,221.822,10.096,222.651z
		"/>
	<path style="fill:#2D2D2D;" d="M13.027,205.406c0.067-0.322,0.142-0.642,0.21-0.963C13.169,204.764,13.094,205.083,13.027,205.406z
		"/>
	<path style="fill:#2D2D2D;" d="M11.919,211.113c0.134-0.731,0.28-1.457,0.419-2.187C12.197,209.654,12.053,210.381,11.919,211.113z
		"/>
	<path style="fill:#2D2D2D;" d="M15.162,196.07c0.114-0.462,0.222-0.927,0.338-1.388C15.383,195.143,15.276,195.608,15.162,196.07z"
		/>
	<path style="fill:#2D2D2D;" d="M10.941,216.863c0.127-0.802,0.262-1.6,0.397-2.399C11.204,215.263,11.067,216.061,10.941,216.863z"
		/>
	<path style="fill:#2D2D2D;" d="M16.443,191.129c0.178-0.659,0.351-1.32,0.535-1.977C16.796,189.809,16.621,190.469,16.443,191.129z
		"/>
	<path style="fill:#2D2D2D;" d="M65.588,96.898c0.2-0.238,0.402-0.474,0.602-0.712C65.991,96.424,65.788,96.66,65.588,96.898z"/>
	<path style="fill:#2D2D2D;" d="M41.465,131.25c0.198-0.338,0.399-0.674,0.598-1.011C41.864,130.578,41.663,130.912,41.465,131.25z"
		/>
	<path style="fill:#2D2D2D;" d="M8.381,240.078c0.051-0.799,0.094-1.6,0.152-2.397C8.474,238.478,8.432,239.279,8.381,240.078z"/>
	<path style="fill:#2D2D2D;" d="M52.957,113.34c0.011-0.016,0.022-0.032,0.034-0.05C52.979,113.307,52.968,113.323,52.957,113.34z"
		/>
	<path style="fill:#2D2D2D;" d="M38.717,136.095c0.244-0.443,0.492-0.882,0.739-1.323C39.209,135.213,38.961,135.653,38.717,136.095
		z"/>
	<path style="fill:#2D2D2D;" d="M62.121,101.141c0.248-0.31,0.497-0.618,0.746-0.927C62.618,100.523,62.369,100.832,62.121,101.141z
		"/>
	<path style="fill:#2D2D2D;" d="M55.643,109.608c0.193-0.263,0.384-0.529,0.577-0.792C56.025,109.08,55.835,109.345,55.643,109.608z
		"/>
	<path style="fill:#2D2D2D;" d="M58.783,105.41c0.246-0.321,0.491-0.643,0.738-0.963C59.275,104.767,59.029,105.089,58.783,105.41z"
		/>
	<path style="fill:#2D2D2D;" d="M8.813,234.309c0.073-0.84,0.143-1.68,0.224-2.517C8.955,232.63,8.886,233.47,8.813,234.309z"/>
	<path style="fill:#2D2D2D;" d="M33.61,145.842c0.231-0.466,0.46-0.933,0.694-1.397C34.069,144.909,33.84,145.376,33.61,145.842z"/>
	<path style="fill:#2D2D2D;" d="M31.349,150.518c0.167-0.355,0.329-0.713,0.498-1.066C31.678,149.805,31.516,150.163,31.349,150.518
		z"/>
	<path style="fill:#2D2D2D;" d="M25.372,164.275c0.05-0.125,0.102-0.248,0.152-0.373C25.475,164.026,25.422,164.149,25.372,164.275z
		"/>
</g>
<path style="fill:#010101;" d="M78.893,141.812l-9.721-49.107c-0.001,0.001-0.001,0.001-0.002,0.002
	c-1.005,1.15-1.995,2.311-2.98,3.479c-0.201,0.238-0.403,0.474-0.602,0.712c-0.918,1.097-1.823,2.204-2.721,3.317
	c-0.249,0.308-0.498,0.617-0.746,0.927c-0.875,1.094-1.741,2.196-2.598,3.305c-0.247,0.32-0.493,0.642-0.738,0.963
	c-0.863,1.128-1.72,2.263-2.563,3.406c-0.194,0.263-0.385,0.529-0.577,0.792c-0.893,1.22-1.781,2.445-2.652,3.682
	c-0.011,0.016-0.022,0.032-0.034,0.05c-3.853,5.473-7.485,11.114-10.894,16.901c-0.199,0.337-0.4,0.673-0.598,1.011
	c-0.681,1.167-1.347,2.343-2.008,3.522c-0.247,0.441-0.495,0.88-0.739,1.323c-0.632,1.142-1.255,2.292-1.869,3.446
	c-0.254,0.477-0.506,0.955-0.757,1.434c-0.604,1.152-1.202,2.308-1.788,3.471c-0.234,0.464-0.463,0.931-0.694,1.397
	c-0.595,1.199-1.187,2.399-1.762,3.609c-0.169,0.354-0.331,0.712-0.498,1.066c-2.066,4.393-4.012,8.854-5.824,13.383
	c-0.05,0.125-0.102,0.247-0.152,0.373c-0.491,1.234-0.963,2.476-1.435,3.719c-0.2,0.527-0.404,1.051-0.601,1.579
	c-0.427,1.151-0.841,2.307-1.252,3.465c-0.223,0.629-0.447,1.257-0.665,1.889c-0.388,1.123-0.766,2.25-1.138,3.381
	c-0.221,0.669-0.438,1.339-0.653,2.01c-0.359,1.12-0.711,2.243-1.054,3.371c-0.208,0.683-0.408,1.367-0.611,2.052
	c-0.334,1.134-0.667,2.27-0.985,3.411c-0.183,0.657-0.357,1.319-0.535,1.977c-0.32,1.182-0.641,2.364-0.943,3.554
	c-0.117,0.461-0.224,0.926-0.338,1.388c-0.688,2.773-1.331,5.563-1.925,8.373c-0.068,0.322-0.143,0.641-0.21,0.963
	c-0.242,1.169-0.464,2.345-0.69,3.52c-0.14,0.729-0.286,1.455-0.419,2.187c-0.204,1.114-0.392,2.233-0.58,3.352
	c-0.135,0.799-0.27,1.597-0.397,2.399c-0.174,1.099-0.337,2.202-0.497,3.306c-0.12,0.825-0.236,1.653-0.347,2.48
	c-0.148,1.098-0.289,2.199-0.422,3.302c-0.101,0.839-0.195,1.679-0.288,2.52c-0.122,1.105-0.243,2.211-0.349,3.32
	c-0.081,0.838-0.151,1.677-0.224,2.517c-0.097,1.122-0.198,2.244-0.28,3.372c-0.058,0.797-0.101,1.598-0.152,2.397
	c-0.185,2.928-0.332,5.866-0.415,8.821c-0.002,0.078-0.007,0.155-0.009,0.233l45.212-25.265
	C56.952,194.61,65.837,166.955,78.893,141.812z"/>
<g>
	<path style="fill:#2D2D2D;" d="M90.956,202.752l-12.063-60.94c-13.056,25.142-21.941,52.798-25.724,82.055L90.956,202.752z"/>
	<path style="fill:#2D2D2D;" d="M70.329,420.601c-0.341-0.385-0.686-0.768-1.025-1.155
		C69.643,419.835,69.987,420.216,70.329,420.601z"/>
	<path style="fill:#2D2D2D;" d="M79.389,430.289c-0.374-0.378-0.743-0.76-1.114-1.14C78.646,429.529,79.016,429.911,79.389,430.289z
		"/>
	<path style="fill:#2D2D2D;" d="M83.015,433.884c-0.388-0.377-0.775-0.754-1.161-1.133
		C82.239,433.131,82.627,433.508,83.015,433.884z"/>
	<polygon style="fill:#2D2D2D;" points="49.73,393.97 49.732,393.973 49.731,393.971 	"/>
	<path style="fill:#2D2D2D;" d="M67.063,416.849c-0.381-0.447-0.76-0.895-1.136-1.344C66.305,415.954,66.682,416.402,67.063,416.849
		z"/>
	<path style="fill:#2D2D2D;" d="M55.716,402.496c-0.352-0.48-0.705-0.961-1.053-1.444C55.012,401.536,55.364,402.016,55.716,402.496
		z"/>
	<path style="fill:#2D2D2D;" d="M52.707,398.304c-0.34-0.485-0.676-0.973-1.013-1.462C52.031,397.331,52.367,397.819,52.707,398.304
		z"/>
	<path style="fill:#2D2D2D;" d="M63.727,412.856c-0.304-0.372-0.602-0.749-0.903-1.121
		C63.125,412.109,63.423,412.484,63.727,412.856z"/>
	<path style="fill:#2D2D2D;" d="M58.267,405.918c-0.163-0.215-0.33-0.426-0.492-0.642C57.937,405.492,58.104,405.704,58.267,405.918
		z"/>
	<path style="fill:#2D2D2D;" d="M146.858,478.897c-0.291-0.143-0.578-0.288-0.868-0.431
		C146.279,478.61,146.567,478.756,146.858,478.897z"/>
	<path style="fill:#2D2D2D;" d="M134.799,472.561c-0.281-0.157-0.562-0.312-0.843-0.471
		C134.237,472.249,134.518,472.404,134.799,472.561z"/>
	<path style="fill:#2D2D2D;" d="M85.999,436.743c-0.13-0.123-0.261-0.242-0.391-0.364C85.738,436.502,85.869,436.621,85.999,436.743
		z"/>
	<path style="fill:#2D2D2D;" d="M155.144,482.776c-0.015-0.006-0.029-0.012-0.045-0.019
		C155.115,482.764,155.13,482.77,155.144,482.776z"/>
	<path style="fill:#2D2D2D;" d="M163.782,486.429L163.782,486.429c-0.012-0.005-0.024-0.01-0.037-0.015
		C163.757,486.419,163.769,486.424,163.782,486.429z"/>
	<path style="fill:#2D2D2D;" d="M151.451,481.089c-0.358-0.167-0.716-0.332-1.073-0.5
		C150.735,480.756,151.093,480.923,151.451,481.089z"/>
	<path style="fill:#2D2D2D;" d="M126.196,467.512c-0.103-0.064-0.206-0.129-0.309-0.192
		C125.99,467.383,126.093,467.448,126.196,467.512z"/>
	<path style="fill:#2D2D2D;" d="M130.616,470.163c-0.358-0.21-0.714-0.421-1.071-0.633
		C129.902,469.741,130.258,469.952,130.616,470.163z"/>
	<path style="fill:#2D2D2D;" d="M96.565,446.132c-0.388-0.325-0.774-0.652-1.16-0.98C95.79,445.479,96.177,445.806,96.565,446.132z"
		/>
	<path style="fill:#2D2D2D;" d="M92.646,442.778c-0.253-0.222-0.503-0.448-0.756-0.671
		C92.143,442.331,92.393,442.557,92.646,442.778z"/>
	<path style="fill:#2D2D2D;" d="M100.324,449.225c-0.322-0.26-0.646-0.517-0.966-0.779
		C99.679,448.707,100.002,448.964,100.324,449.225z"/>
	<path style="fill:#2D2D2D;" d="M110.975,457.358c-0.337-0.243-0.67-0.489-1.007-0.734
		C110.305,456.868,110.639,457.115,110.975,457.358z"/>
	<path style="fill:#2D2D2D;" d="M118.373,462.497c-0.026-0.017-0.053-0.034-0.079-0.052
		C118.32,462.462,118.347,462.48,118.373,462.497z"/>
	<path style="fill:#2D2D2D;" d="M115.108,460.273c-0.367-0.253-0.733-0.506-1.098-0.761
		C114.375,459.766,114.742,460.019,115.108,460.273z"/>
</g>
<path style="fill:#010101;" d="M96.301,398.811L49.73,393.97c0,0,0.001,0.002,0.002,0.003c0.645,0.962,1.304,1.916,1.962,2.869
	c0.337,0.487,0.673,0.976,1.013,1.462c0.646,0.921,1.298,1.837,1.956,2.749c0.348,0.483,0.701,0.963,1.053,1.444
	c0.682,0.93,1.363,1.86,2.058,2.78c0.162,0.215,0.329,0.427,0.492,0.642c1.49,1.963,3.011,3.9,4.558,5.817
	c0.302,0.374,0.6,0.749,0.903,1.121c0.726,0.888,1.462,1.769,2.2,2.649c0.378,0.449,0.757,0.897,1.136,1.344
	c0.741,0.87,1.488,1.738,2.24,2.598c0.339,0.387,0.684,0.77,1.025,1.155c2.583,2.911,5.232,5.761,7.947,8.546
	c0.371,0.381,0.74,0.763,1.114,1.14c0.816,0.826,1.639,1.647,2.465,2.462c0.385,0.38,0.773,0.757,1.161,1.133
	c0.86,0.837,1.721,1.671,2.593,2.495c0.13,0.123,0.261,0.242,0.391,0.364c1.935,1.82,3.899,3.608,5.892,5.365
	c0.252,0.223,0.502,0.449,0.756,0.67c0.913,0.799,1.834,1.587,2.759,2.373c0.386,0.328,0.772,0.655,1.16,0.98
	c0.926,0.778,1.857,1.551,2.793,2.314c0.321,0.261,0.644,0.519,0.966,0.779c3.152,2.542,6.368,5.01,9.644,7.399
	c0.335,0.244,0.669,0.491,1.007,0.734c1.006,0.725,2.018,1.442,3.034,2.153c0.365,0.255,0.731,0.507,1.098,0.761
	c1.057,0.73,2.117,1.457,3.186,2.172c0.026,0.017,0.053,0.034,0.079,0.052c2.473,1.652,4.979,3.259,7.514,4.823
	c0.103,0.064,0.206,0.129,0.309,0.192c1.109,0.683,2.227,1.352,3.348,2.018c0.357,0.212,0.713,0.423,1.071,0.633
	c1.109,0.65,2.221,1.294,3.341,1.928c0.28,0.158,0.562,0.314,0.843,0.471c3.674,2.06,7.404,4.029,11.19,5.905
	c0.29,0.144,0.578,0.289,0.868,0.431c1.168,0.573,2.343,1.136,3.521,1.691c0.357,0.168,0.715,0.334,1.073,0.5
	c1.212,0.564,2.427,1.123,3.65,1.668c0.014,0.007,0.029,0.013,0.045,0.019c2.839,1.265,5.705,2.477,8.599,3.637
	c0.012,0.005,0.024,0.01,0.037,0.015l-5.619-26.288C134.115,443.491,113.15,422.709,96.301,398.811z"/>
<g>
	<path style="fill:#2D2D2D;" d="M96.301,398.811c16.848,23.899,37.814,44.68,61.86,61.331l-12.002-56.148L96.301,398.811z"/>
	<path style="fill:#2D2D2D;" d="M382.464,469.525c-0.362,0.215-0.723,0.429-1.086,0.642
		C381.741,469.953,382.102,469.738,382.464,469.525z"/>
	<path style="fill:#2D2D2D;" d="M393.71,462.442c-0.037,0.025-0.075,0.05-0.112,0.074
		C393.635,462.491,393.673,462.466,393.71,462.442z"/>
	<path style="fill:#2D2D2D;" d="M386.128,467.31c-0.109,0.068-0.218,0.137-0.327,0.205
		C385.91,467.446,386.019,467.377,386.128,467.31z"/>
	<path style="fill:#2D2D2D;" d="M402.035,456.621c-0.337,0.246-0.673,0.493-1.011,0.737
		C401.362,457.115,401.697,456.867,402.035,456.621z"/>
	<path style="fill:#2D2D2D;" d="M397.994,459.508c-0.369,0.258-0.739,0.513-1.11,0.77
		C397.255,460.021,397.626,459.766,397.994,459.508z"/>
	<path style="fill:#2D2D2D;" d="M348.219,486.429c0.012-0.005,0.024-0.01,0.037-0.015
		C348.244,486.419,348.231,486.424,348.219,486.429L348.219,486.429z"/>
	<path style="fill:#2D2D2D;" d="M412.643,448.446c-0.322,0.262-0.647,0.521-0.97,0.782
		C411.996,448.966,412.321,448.708,412.643,448.446z"/>
	<path style="fill:#2D2D2D;" d="M356.899,482.757c-0.014,0.007-0.029,0.013-0.045,0.019
		C356.87,482.77,356.885,482.764,356.899,482.757z"/>
	<path style="fill:#2D2D2D;" d="M361.626,480.587c-0.36,0.169-0.721,0.337-1.082,0.505
		C360.905,480.924,361.266,480.756,361.626,480.587z"/>
	<polygon style="fill:#2D2D2D;" points="462.27,393.97 462.27,393.97 462.268,393.973 	"/>
	<path style="fill:#2D2D2D;" d="M366.012,478.465c-0.291,0.144-0.579,0.29-0.871,0.432
		C365.433,478.755,365.723,478.609,366.012,478.465z"/>
	<path style="fill:#2D2D2D;" d="M378.045,472.089c-0.282,0.159-0.564,0.315-0.847,0.474
		C377.48,472.404,377.763,472.248,378.045,472.089z"/>
	<path style="fill:#2D2D2D;" d="M449.192,411.716c-0.308,0.382-0.613,0.766-0.923,1.146
		C448.579,412.481,448.884,412.098,449.192,411.716z"/>
	<path style="fill:#2D2D2D;" d="M454.228,405.275c-0.168,0.223-0.34,0.443-0.509,0.664
		C453.886,405.717,454.059,405.498,454.228,405.275z"/>
	<path style="fill:#2D2D2D;" d="M460.307,396.839c-0.338,0.489-0.676,0.979-1.017,1.467
		C459.633,397.819,459.97,397.33,460.307,396.839z"/>
	<path style="fill:#2D2D2D;" d="M446.078,415.499c-0.38,0.453-0.762,0.904-1.145,1.354
		C445.317,416.403,445.698,415.951,446.078,415.499z"/>
	<path style="fill:#2D2D2D;" d="M416.603,445.145c-0.39,0.332-0.781,0.663-1.174,0.993
		C415.822,445.808,416.213,445.476,416.603,445.145z"/>
	<path style="fill:#2D2D2D;" d="M457.34,401.049c-0.35,0.486-0.706,0.969-1.059,1.453
		C456.634,402.018,456.988,401.535,457.34,401.049z"/>
	<path style="fill:#2D2D2D;" d="M426.394,436.377c-0.136,0.129-0.274,0.253-0.41,0.382
		C426.121,436.631,426.258,436.506,426.394,436.377z"/>
	<path style="fill:#2D2D2D;" d="M442.695,419.448c-0.338,0.387-0.683,0.77-1.024,1.154
		C442.014,420.216,442.357,419.834,442.695,419.448z"/>
	<path style="fill:#2D2D2D;" d="M420.122,442.097c-0.257,0.227-0.511,0.457-0.77,0.684
		C419.61,442.555,419.864,442.324,420.122,442.097z"/>
	<path style="fill:#2D2D2D;" d="M430.146,432.751c-0.386,0.38-0.774,0.757-1.162,1.134
		C429.372,433.508,429.76,433.131,430.146,432.751z"/>
	<path style="fill:#2D2D2D;" d="M433.728,429.144c-0.373,0.383-0.744,0.767-1.119,1.146
		C432.984,429.911,433.355,429.527,433.728,429.144z"/>
</g>
<path style="fill:#3E3D43;" d="M352.873,464.655l-4.654,21.774c0.012-0.005,0.024-0.01,0.037-0.015
	c2.894-1.16,5.761-2.372,8.599-3.637c0.014-0.006,0.029-0.012,0.045-0.019c1.221-0.544,2.434-1.102,3.644-1.666
	c0.361-0.168,0.722-0.335,1.082-0.505c1.177-0.554,2.35-1.116,3.516-1.688c0.292-0.143,0.58-0.289,0.871-0.432
	c3.784-1.875,7.513-3.844,11.185-5.903c0.283-0.158,0.565-0.314,0.847-0.474c1.117-0.632,2.227-1.274,3.333-1.923
	c0.363-0.213,0.724-0.427,1.086-0.642c1.117-0.663,2.231-1.331,3.337-2.01c0.109-0.067,0.218-0.137,0.327-0.205
	c2.52-1.555,5.01-3.152,7.47-4.793c0.037-0.025,0.075-0.05,0.112-0.074c1.065-0.712,2.121-1.436,3.174-2.164
	c0.371-0.256,0.741-0.511,1.11-0.77c1.015-0.71,2.026-1.425,3.029-2.15c0.338-0.244,0.674-0.491,1.011-0.737
	c3.274-2.387,6.488-4.853,9.638-7.395c0.323-0.261,0.648-0.52,0.97-0.782c0.935-0.762,1.863-1.532,2.786-2.308
	c0.392-0.329,0.783-0.66,1.174-0.993c0.921-0.783,1.839-1.568,2.749-2.364c0.258-0.226,0.513-0.456,0.77-0.684
	c1.982-1.749,3.938-3.528,5.863-5.339c0.136-0.128,0.274-0.253,0.41-0.382c0.871-0.823,1.731-1.657,2.59-2.492
	c0.388-0.378,0.776-0.755,1.162-1.134c0.826-0.814,1.648-1.634,2.463-2.459c0.375-0.38,0.746-0.764,1.119-1.147
	c2.714-2.785,5.362-5.634,7.944-8.543c0.341-0.385,0.685-0.767,1.024-1.154c0.753-0.859,1.497-1.725,2.237-2.595
	c0.383-0.45,0.765-0.901,1.144-1.354c0.735-0.875,1.468-1.752,2.191-2.637c0.31-0.38,0.615-0.764,0.923-1.146
	c1.535-1.903,3.046-3.827,4.526-5.776c0.169-0.222,0.341-0.442,0.509-0.664c0.693-0.918,1.372-1.845,2.053-2.773
	c0.354-0.483,0.709-0.967,1.059-1.453c0.656-0.91,1.308-1.824,1.952-2.743c0.341-0.487,0.679-0.977,1.017-1.467
	c0.657-0.952,1.316-1.904,1.96-2.866c0.001-0.001,0.001-0.002,0.002-0.003l-40.355,4.194
	C403.441,424.545,379.973,447.17,352.873,464.655z"/>
<path style="fill:#2D2D2D;" d="M421.915,398.165l-56.075,5.829l-12.967,60.662C379.973,447.17,403.441,424.545,421.915,398.165z"/>
<path d="M452.667,419.489c6.814-8.167,13.076-16.695,18.764-25.539l6.171-9.209l-0.561,0.058
	c21.623-36.966,33.609-78.915,34.624-122.712l0.335,0.187l-0.334-12.308c-0.007-0.311-0.017-0.621-0.025-0.931l-0.003-0.116
	c-0.006-0.224-0.019-0.446-0.025-0.669c-1.773-59.986-24.116-116.429-63.656-161.221l-9.574-10.946l-0.11,0.556
	c-0.481-0.489-0.951-0.986-1.437-1.473c-22.461-22.461-48.367-40.223-76.524-52.807l0.279-0.203l-6.668-2.556
	c-19.919-8.25-40.9-13.93-62.528-16.906c-0.241-0.033-0.482-0.065-0.723-0.098c-1.608-0.217-3.22-0.421-4.835-0.608
	c-0.527-0.062-1.054-0.116-1.582-0.174c-1.385-0.151-2.771-0.298-4.161-0.426c-0.767-0.072-1.535-0.133-2.304-0.198
	c-1.191-0.099-2.382-0.201-3.576-0.285c-0.99-0.07-1.98-0.124-2.972-0.181c-1.008-0.059-2.014-0.125-3.023-0.171
	c-1.251-0.059-2.505-0.096-3.758-0.138c-0.773-0.024-1.545-0.061-2.318-0.079c-2.044-0.048-4.091-0.075-6.141-0.075
	s-4.097,0.026-6.141,0.075c-0.772,0.018-1.54,0.054-2.311,0.078c-1.256,0.041-2.513,0.079-3.767,0.138
	c-1.004,0.047-2.003,0.111-3.004,0.17c-0.998,0.059-1.996,0.112-2.992,0.182c-1.187,0.083-2.37,0.183-3.554,0.283
	c-0.777,0.066-1.554,0.127-2.329,0.2c-1.381,0.129-2.759,0.274-4.135,0.424c-0.537,0.059-1.074,0.115-1.609,0.177
	c-1.604,0.185-3.206,0.389-4.803,0.604c-0.253,0.034-0.507,0.068-0.761,0.103c-21.613,2.976-42.579,8.651-62.485,16.893
	l-6.693,2.565l0.28,0.203C123.537,34.94,97.629,52.702,75.167,75.165c-0.484,0.484-0.952,0.979-1.431,1.467l-0.11-0.555
	L64.043,87.03C24.62,131.695,2.295,187.942,0.408,247.733c-0.012,0.397-0.034,0.794-0.046,1.191l-0.006,0.206
	c-0.007,0.259-0.015,0.519-0.021,0.779L0,262.28l0.336-0.188C1.353,305.888,13.338,347.836,34.96,384.8l-0.56-0.06l6.172,9.21
	c5.687,8.842,11.946,17.368,18.759,25.533c0.833,1.003,1.671,2.001,2.519,2.99c0.199,0.231,0.396,0.461,0.596,0.691
	c13.586,15.758,28.96,29.722,45.829,41.659c0.457,0.325,0.915,0.65,1.373,0.971c0.771,0.538,1.547,1.066,2.323,1.596
	c16.957,11.605,35.149,21.051,54.241,28.195l7.977,3.195l-0.082-0.386c26.039,8.771,53.614,13.344,81.894,13.344
	s55.853-4.573,81.893-13.343l-0.082,0.385l7.965-3.19c19.119-7.154,37.338-16.614,54.315-28.242c0.749-0.51,1.497-1.02,2.239-1.538
	c0.476-0.334,0.95-0.671,1.424-1.008c16.857-11.931,32.221-25.888,45.799-41.634c0.202-0.232,0.402-0.466,0.603-0.699
	C451,421.483,451.836,420.489,452.667,419.489z M496.546,256.001c0,48.198-14.26,93.123-38.767,130.799l-88.875,9.237
	l-44.578-49.624l34.636-106.6l61.764-28.543l75.791,42.352C496.524,254.416,496.546,255.206,496.546,256.001z M358.759,473.462
	l13.357-62.483l73.925-7.683C422.96,433.005,393.082,457.177,358.759,473.462z M201.715,340.441L168.163,237.18l87.84-63.819
	l87.84,63.819l-33.552,103.261H201.715z M231.246,16.722c0.104-0.01,0.209-0.022,0.313-0.032c3.847-0.39,7.72-0.685,11.617-0.89
	c0.424-0.022,0.849-0.041,1.273-0.061c1.468-0.07,2.939-0.126,4.414-0.168c0.506-0.015,1.013-0.031,1.52-0.044
	c1.868-0.043,3.738-0.071,5.616-0.071c1.877,0,3.746,0.028,5.613,0.071c0.51,0.012,1.02,0.028,1.529,0.044
	c1.471,0.043,2.937,0.098,4.401,0.168c0.428,0.02,0.858,0.038,1.286,0.061c3.891,0.206,7.758,0.5,11.599,0.889
	c0.116,0.012,0.233,0.025,0.349,0.036c16.475,1.693,32.457,5.064,47.784,9.925l-72.559,52.717l-72.56-52.718
	C198.776,21.786,214.764,18.415,231.246,16.722z M472.444,151.113c0.264,0.546,0.528,1.092,0.788,1.64
	c0.383,0.802,0.757,1.61,1.13,2.418c11.493,24.897,18.719,51.705,21.201,79.206c0.042,0.46,0.084,0.919,0.123,1.379l-66.112-36.944
	l17.555-88.685C456.867,122.855,465.37,136.574,472.444,151.113z M434.623,95.069l-20.272,102.409l-60.699,28.051L263.6,160.103
	V92.625l82.241-59.752C380.015,46.684,410.318,68.119,434.623,95.069z M166.164,32.872l82.243,59.754v67.477l-90.053,65.426
	l-60.699-28.05L77.384,95.063C101.689,68.114,131.99,46.681,166.164,32.872z M16.45,234.231
	c2.496-27.453,9.717-54.211,21.191-79.067c0.374-0.805,0.745-1.611,1.128-2.412c0.26-0.548,0.524-1.095,0.788-1.642
	c7.076-14.541,15.58-28.261,25.319-40.989l17.556,88.691L16.315,235.76C16.357,235.249,16.405,234.741,16.45,234.231z
	 M15.455,256.001c0-0.794,0.022-1.583,0.03-2.375l75.797-42.356l61.764,28.543l34.634,106.595l-44.584,49.63l-88.875-9.237
	C29.714,349.125,15.455,304.199,15.455,256.001z M65.96,403.295l73.925,7.683l13.356,62.483
	C118.918,457.177,89.04,433.004,65.96,403.295z M256.001,496.547c-30.161,0-59.036-5.596-85.662-15.778l-15.942-74.579
	l45.415-50.556h112.375l45.416,50.556l-15.942,74.58C315.035,490.951,286.161,496.547,256.001,496.547z"/>
<g>
	<path style="fill:#FFFFFF;" d="M256.001,471.292c-2.491,0-5.014-0.044-7.502-0.128l0.519-15.184
		c18.972,0.652,37.996-1.371,56.226-5.982l3.727,14.727C291.747,469.082,273.925,471.292,256.001,471.292z"/>
	<path style="fill:#FFFFFF;" d="M413.591,132.682c-4.834-6.169-10.09-12.119-15.619-17.687l10.78-10.706
		c5.946,5.987,11.598,12.387,16.798,19.022L413.591,132.682z"/>
	<path style="fill:#FFFFFF;" d="M389.485,106.932c-14.425-12.925-30.578-23.66-48.013-31.909l6.498-13.733
		c18.759,8.875,36.138,20.425,51.653,34.327L389.485,106.932z"/>
</g>
<g>
</g>
<g>
</g>
<g>
</g>
<g>
</g>
<g>
</g>
<g>
</g>
<g>
</g>
<g>
</g>
<g>
</g>
<g>
</g>
<g>
</g>
<g>
</g>
<g>
</g>
<g>
</g>
<g>
</g>
</svg>
