<svg height="480pt" viewBox="0 -76 480 480" width="480pt" xmlns="http://www.w3.org/2000/svg"><path d="m0 232h480v96h-480zm0 0" fill="#006837"/><path d="m456 0h-432c-4.417969 0-8 3.582031-8 8v272c0 4.417969 3.582031 8 8 8h16c2.121094 0 4.15625-.84375 5.648438-2.351562l37.664062-37.648438h313.375l37.65625 37.65625c1.496094 1.503906 3.535156 2.347656 5.65625 2.34375h16c4.417969 0 8-3.582031 8-8v-272c0-4.417969-3.582031-8-8-8zm-124.433594 232h-36.796875l-6.882812-6.871094 25.265625-25.265625 25.246094 25.289063zm-189.964844-6.847656 25.285157-25.289063 25.265625 25.265625-6.878906 6.871094h-36.800782zm-53.601562-126.753906v-26.398438h24.121094l6.839844 6.847656-25.242188 25.242188zm243.566406-26.398438 6.847656 6.847656-25.285156 25.289063-25.265625-25.265625 6.878907-6.871094zm-29.75 43.449219-25.25 25.238281-25.253906-25.253906 25.238281-25.25zm-43.417968-43.449219 6.875 6.871094-25.273438 25.25-25.238281-25.25 6.839843-6.871094zm-29.679688 43.433594-25.253906 25.253906-25.25-25.238281 25.265625-25.265625zm-43.460938-43.433594 6.878907 6.871094-25.265625 25.265625-25.269532-25.289063 6.847657-6.847656zm-54.984374 18.160156 25.285156 25.289063-25.238282 25.238281-25.289062-25.289062zm36.597656 36.601563 25.25 25.238281-25.25 25.238281-25.269532-25.238281zm36.5625 36.550781 25.253906 25.253906-25.238281 25.25-25.265625-25.265625zm11.308594-11.3125 25.257812-25.257812 25.257812 25.257812-25.257812 25.257812zm61.824218 11.3125 25.25 25.238281-25.265625 25.265625-25.238281-25.25zm11.3125-11.3125 25.25-25.238281 25.269532 25.238281-25.238282 25.238281zm36.5625-36.550781 25.285156-25.289063 25.242188 25.238282-25.289062 25.289062zm36.597656-36.601563 6.839844-6.847656h24.121094v26.398438l-5.71875 5.722656zm35.648438-22.847656h-313.375l-24-24h361.375zm-324.6875 11.3125v169.375l-24 24v-217.375zm16 104.253906v-39.132812l5.71875-5.722656 25.289062 25.289062-25.289062 25.289062zm42.320312-8.253906 25.238282 25.238281-25.285156 25.289063-25.242188-25.238282zm84.441407 61.816406 25.238281-25.25 25.238281 25.25-6.839843 6.871094h-36.796876zm109.679687-36.578125 25.238282-25.238281 25.289062 25.289062-25.242188 25.238282zm36.550782-36.550781 25.289062-25.289062 5.71875 5.722656v39.132812l-5.71875 5.722656zm47.007812-84.6875 24-24v217.375l-24-24zm-320 138.289062 5.71875-5.722656 25.242188 25.242188-6.839844 6.847656h-24.121094zm279.878906 26.398438-6.839844-6.847656 25.242188-25.242188 5.71875 5.691406v26.398438zm0 0" fill="#ccc"/></svg>